<svg xmlns="http://www.w3.org/2000/svg" width="14" height="15">
    <path fill="#828282" fill-rule="evenodd" d="M13.662 4.319c-.21-.13-1.764-1.166-3.139-2.083C7.176.004 7.176.004 6.974.004c-.202 0-.202 0-3.528 2.223C2.068 3.148.511 4.189.301 4.32a.585.585 0 0 0-.315.519v9.202a.59.59 0 0 0 .592.588H13.386a.59.59 0 0 0 .592-.588V4.839a.586.586 0 0 0-.316-.52zm-.867 9.134h-2.376V9.511a.589.589 0 0 0-.591-.588H4.135a.589.589 0 0 0-.59.588v3.942H1.169V5.15c.44-.277 1.272-.833 2.936-1.946 1.102-.737 2.319-1.551 2.87-1.913.566.371 1.83 1.215 2.889 1.922 1.661 1.108 2.491 1.661 2.931 1.937v8.303zm-8.068-3.354h4.51v3.354h-4.51v-3.354z"/>
</svg>
