<svg xmlns="http://www.w3.org/2000/svg" width="19" height="18">
    <path fill="#5F6EF2" fill-rule="evenodd" d="M17.936 17.72a.953.953 0 0 1-1.351 0l-4.584-4.586a7.287 7.287 0 0 1-4.459 1.522A7.334 7.334 0 0 1 .21 7.321 7.334 7.334 0 0 1 7.542-.013a7.334 7.334 0 0 1 7.332 7.334 7.294 7.294 0 0 1-1.522 4.462l4.584 4.585a.957.957 0 0 1 0 1.352zM7.542 1.897A5.43 5.43 0 0 0 2.12 7.321a5.429 5.429 0 0 0 5.422 5.425c1.307 0 2.491-.484 3.428-1.258.27-.222.514-.467.737-.736.773-.938 1.257-2.123 1.257-3.431a5.43 5.43 0 0 0-5.422-5.424z"/>
</svg>
