<svg xmlns="http://www.w3.org/2000/svg" width="19" height="18">
    <path fill="#505050" fill-rule="evenodd" d="M18.708 17.72a.956.956 0 0 1-1.351 0l-4.585-4.586a7.285 7.285 0 0 1-4.459 1.522A7.333 7.333 0 0 1 .982 7.321a7.333 7.333 0 1 1 14.663 0 7.3 7.3 0 0 1-1.521 4.462l4.584 4.585a.958.958 0 0 1 0 1.352zM8.313 1.897a5.43 5.43 0 0 0-5.422 5.424 5.429 5.429 0 0 0 5.422 5.425c1.307 0 2.492-.484 3.429-1.258.269-.222.514-.467.736-.736.774-.938 1.257-2.123 1.257-3.431a5.43 5.43 0 0 0-5.422-5.424z"/>
</svg>
