<svg xmlns="http://www.w3.org/2000/svg" width="12" height="10">
    <path fill="#A8AAB6" fill-rule="evenodd" d="M6.833 4.992l4.042 3.884c.19.184.19.483 0 .667l-.328.317a.498.498 0 0 1-.688 0L5.474 5.642l-.327-.317a.46.46 0 0 1 0-.667l.327-.317L9.859.124a.498.498 0 0 1 .688 0l.328.316c.19.184.19.483 0 .667L6.833 4.992zm-5 0l4.042 3.884c.19.184.19.483 0 .667l-.327.317a.498.498 0 0 1-.688 0L.474 5.642l-.327-.317a.462.462 0 0 1 0-.667l.327-.317L4.86.124a.498.498 0 0 1 .688 0l.327.316c.19.184.19.483 0 .667L1.833 4.992z"/>
</svg>
