<svg xmlns="http://www.w3.org/2000/svg" width="16" height="18">
    <path fill="#C4CAD8" fill-rule="evenodd" d="M12.666 18H3.333C1.495 18 0 16.464 0 14.576V3.424C0 1.536 1.495 0 3.333 0h9.333C14.504 0 16 1.536 16 3.424v11.152C16 16.464 14.504 18 12.666 18zm2-14.576c0-1.133-.897-2.055-2-2.055H3.333c-1.103 0-2 .922-2 2.055v11.152c0 1.133.897 2.054 2 2.054h9.333c1.103 0 2-.921 2-2.054V3.424zm-3.333 6.489H3.777a.769.769 0 0 1-.755-.783c0-.432.338-.783.755-.783h7.556a.77.77 0 0 1 .756.783.77.77 0 0 1-.756.783zm0-3.913H3.777a.769.769 0 0 1-.755-.783c0-.432.338-.783.755-.783h7.556a.77.77 0 0 1 .756.783.77.77 0 0 1-.756.783zm-7.556 6.261h4.408c.417 0 .755.35.755.782a.769.769 0 0 1-.755.783H3.777a.769.769 0 0 1-.755-.783c0-.432.338-.782.755-.782z" opacity=".502"/>
</svg>
