<svg xmlns="http://www.w3.org/2000/svg" width="18" height="17">
    <path fill="#C4CAD8" fill-rule="evenodd" d="M17.416 3.809L9.67 11.474a.423.423 0 0 1-.191.11l-3.678 1.009a.44.44 0 0 1-.423-.11.429.429 0 0 1-.111-.419l1.019-3.639a.422.422 0 0 1 .111-.189L14.143.57c.763-.755 2-.755 2.763 0l.51.504a1.924 1.924 0 0 1 0 2.735zM6.309 11.562l2.259-.619-1.633-1.617-.626 2.236zm7.374-9.321l-6.34 6.274 2.045 2.023 6.339-6.273-2.044-2.024zm3.119-.559l-.51-.504a1.093 1.093 0 0 0-1.535 0l-.461.456 2.045 2.023.461-.456a1.068 1.068 0 0 0 0-1.519zm-7.939-.344H7.124 2.776a1.73 1.73 0 0 0-1.738 1.721v11.186c0 .95.778 1.721 1.738 1.721h12.173a1.73 1.73 0 0 0 1.739-1.721v-3.527l-.001-.001V8.996h.001c0-.285.233-.516.521-.516.289 0 .522.231.522.516V14.245c0 1.518-1.248 2.753-2.782 2.753H2.776c-1.533 0-2.782-1.235-2.782-2.753V3.059c0-1.518 1.249-2.753 2.782-2.753h6.086c.289 0 .522.231.522.516a.518.518 0 0 1-.521.516z" opacity=".502"/>
</svg>
