<svg xmlns="http://www.w3.org/2000/svg" width="18" height="18">
    <path fill="#C4CAD8" fill-rule="evenodd" d="M9.81 1.351l1.059 2.235 2.238 1.201 2.612-.264.811 1.305-1.553 1.97v2.404l1.551 1.972-.81 1.306-2.612-.265-2.243 1.198-1.055 2.236H8.189l-1.06-2.236-2.238-1.201-2.611.265-.811-1.306 1.551-1.969V7.798l-1.551-1.97.811-1.305 2.611.264 2.238-1.201 1.06-2.235H9.81m-.813 11.473c2.272 0 4.114-1.712 4.114-3.824s-1.842-3.825-4.114-3.825S4.883 6.888 4.883 9s1.842 3.824 4.114 3.824M9.81 0H8.189C7.613 0 7.092.316 6.86.806l-.869 1.831-1.415.76-2.139-.217a1.476 1.476 0 0 0-1.416.668L.21 5.154a1.272 1.272 0 0 0 .087 1.472l1.27 1.614v1.52l-1.27 1.613a1.274 1.274 0 0 0-.087 1.473l.811 1.306a1.476 1.476 0 0 0 1.416.668l2.139-.217 1.415.759.869 1.832c.232.489.753.805 1.329.805h1.619c.576 0 1.098-.317 1.33-.808l.863-1.828 1.418-.757 2.142.217a1.479 1.479 0 0 0 1.416-.668l.81-1.306a1.27 1.27 0 0 0-.086-1.472l-1.272-1.616V8.24l1.273-1.613c.34-.432.374-1.01.086-1.473l-.81-1.306a1.478 1.478 0 0 0-1.416-.668l-2.14.217-1.415-.76-.868-1.83C10.907.317 10.386 0 9.81 0zm-.813 11.474c-1.467 0-2.661-1.11-2.661-2.474S7.53 6.526 8.997 6.526c1.468 0 2.661 1.11 2.661 2.474s-1.193 2.474-2.661 2.474z" opacity=".502"/>
</svg>
