<svg xmlns="http://www.w3.org/2000/svg" width="18" height="16">
    <path fill="#C4CAD8" fill-rule="evenodd" d="M15.299.009H2.7C1.208.009 0 1.176 0 2.616V13.38c0 1.44 1.208 2.607 2.7 2.607h12.599c1.492 0 2.701-1.167 2.701-2.607V2.616c0-1.44-1.209-2.607-2.701-2.607zM2.7 1.226h12.599c.795 0 1.441.623 1.441 1.39V5.03H1.26V2.616c0-.767.646-1.39 1.44-1.39zM1.26 13.38V6.246h4.328v8.524H2.7c-.794 0-1.44-.623-1.44-1.39zm14.039 1.39H6.848V6.246h9.892v7.134c0 .767-.646 1.39-1.441 1.39z" opacity=".502"/>
</svg>
