<svg xmlns="http://www.w3.org/2000/svg" width="18" height="18">
    <path fill="#C4CAD8" fill-rule="evenodd" d="M16.772 17.996H1.232c-.673 0-1.221-.534-1.221-1.191V6.52c0-.656.548-1.19 1.221-1.19h15.54c.673 0 1.221.534 1.221 1.19v10.285c0 .657-.548 1.191-1.221 1.191zm-.111-11.368H1.343v10.069h15.318V6.628zM5.672 9.66c.368 0 .666.291.666.649v1.516h5.328v-1.516c0-.358.298-.649.666-.649.368 0 .666.291.666.649v1.624c0 .657-.548 1.191-1.221 1.191h-5.55c-.673 0-1.221-.534-1.221-1.191v-1.624c0-.358.298-.649.666-.649zm10.545-6.197H1.787a.658.658 0 0 1-.666-.649c0-.359.298-.65.666-.65h14.43c.368 0 .666.291.666.65a.658.658 0 0 1-.666.649zm-1.11-2.165H2.897a.658.658 0 0 1-.666-.65c0-.358.298-.649.666-.649h12.21c.368 0 .666.291.666.649 0 .359-.298.65-.666.65z" opacity=".502"/>
</svg>
