<svg xmlns="http://www.w3.org/2000/svg" width="17" height="20">
    <path fill="#828282" fill-rule="evenodd" d="M14.557 1.523H8.662A2.365 2.365 0 0 0 6.449 0a2.365 2.365 0 0 0-2.213 1.523h-.938A2.357 2.357 0 0 0 .935 3.867v13.789A2.357 2.357 0 0 0 3.298 20h11.259a2.357 2.357 0 0 0 2.363-2.344V3.867a2.357 2.357 0 0 0-2.363-2.344zm.787 16.133a.785.785 0 0 1-.787.782H3.298a.785.785 0 0 1-.787-.782V3.867c0-.431.353-.781.787-.781h2.363v-.743c0-.43.354-.781.788-.781.434 0 .787.351.787.781v6.718a.785.785 0 0 1-.787.781.786.786 0 0 1-.788-.781V4.648H4.086v4.413a2.356 2.356 0 0 0 2.363 2.344 2.356 2.356 0 0 0 2.362-2.344V3.086h5.746c.434 0 .787.35.787.781v13.789z"/>
</svg>
