<svg xmlns="http://www.w3.org/2000/svg" width="15" height="14">
    <path fill="#222" fill-rule="evenodd" d="M14.3 13.986H.695a.689.689 0 0 1-.697-.68V9.2c0-.376.312-.68.697-.68.384 0 .696.304.696.68v3.425h12.213V9.2c0-.376.312-.68.696-.68.385 0 .697.304.697.68v4.106c0 .375-.312.68-.697.68zm-6.305-3.891a.698.698 0 0 1-.498.198.697.697 0 0 1-.497-.198L3.096 6.277a.67.67 0 0 1 0-.963.708.708 0 0 1 .985 0l2.81 2.748V.688c0-.376.312-.681.696-.681a.69.69 0 0 1 .697.681v7.198l2.63-2.572a.706.706 0 0 1 .984 0 .671.671 0 0 1 .001.963l-3.904 3.818z"/>
</svg>
