<svg xmlns="http://www.w3.org/2000/svg" width="20" height="15">
    <path fill="#C4CAD8" fill-rule="evenodd" d="M18.979 6.861a1.554 1.554 0 0 0-1.328-.708h-1.376V3.685c0-.596-.513-1.08-1.145-1.08H8.397a.033.033 0 0 1-.019-.005L7.173.951A1.167 1.167 0 0 0 6.23.485H1.85C1.218.485.704.969.704 1.565v11.841c0 .61.527 1.106 1.174 1.106h13.627c.213 0 .396-.12.485-.294l3.054-6.001a1.36 1.36 0 0 0-.065-1.356zM1.85 1.545h4.38c.033 0 .055.013.062.023l1.206 1.651c.204.279.54.445.899.445h6.733c.038 0 .057.018.062.024v2.465H5.388c-.608 0-1.161.335-1.409.854l-2.191 4.589V1.568c.005-.006.024-.023.062-.023zm16.224 6.2l-2.904 5.707H2.097l2.864-5.996c.069-.145.241-.243.427-.243h12.263c.173 0 .325.077.407.206a.316.316 0 0 1 .016.326z" opacity=".502"/>
</svg>
