<svg xmlns="http://www.w3.org/2000/svg" width="17" height="18">
    <path fill="#576C84" fill-rule="evenodd" d="M9.265 1.351l1 2.235 2.113 1.201 2.467-.265.765 1.306-1.466 1.97v2.404l1.465 1.972-.765 1.306-2.467-.265-2.118 1.198-.996 2.236H7.734l-1.001-2.236-2.113-1.201-2.466.265-.765-1.306 1.464-1.969V7.798l-1.464-1.97.765-1.306 2.466.265 2.113-1.201 1.001-2.235h1.531m-.768 11.473c2.146 0 3.885-1.712 3.885-3.824s-1.739-3.825-3.885-3.825C6.352 5.175 4.613 6.888 4.613 9s1.739 3.824 3.884 3.824M9.265 0H7.734c-.543 0-1.036.316-1.255.806l-.82 1.831-1.336.76-2.02-.217a1.376 1.376 0 0 0-1.338.667L.2 5.153a1.333 1.333 0 0 0 .081 1.473l1.2 1.613V9.76l-1.2 1.613A1.333 1.333 0 0 0 .2 12.846l.765 1.306a1.377 1.377 0 0 0 1.338.668l2.02-.217 1.336.759.82 1.832c.219.489.712.805 1.255.805h1.529c.544 0 1.037-.317 1.256-.808l.815-1.828 1.339-.757 2.023.217a1.374 1.374 0 0 0 1.336-.668l.766-1.306a1.335 1.335 0 0 0-.081-1.472L15.516 9.76V8.24l1.201-1.613c.322-.432.354-1.01.082-1.474l-.765-1.306a1.377 1.377 0 0 0-1.338-.667l-2.02.217-1.337-.76-.819-1.83A1.374 1.374 0 0 0 9.265 0zm-.768 11.474c-1.385 0-2.512-1.11-2.512-2.474s1.127-2.474 2.512-2.474c1.386 0 2.513 1.11 2.513 2.474s-1.127 2.474-2.513 2.474z"/>
</svg>
