<svg xmlns="http://www.w3.org/2000/svg" width="12" height="10">
    <path fill="#505050" fill-rule="evenodd" d="M11.852 5.31l-.327.317-4.386 4.217a.496.496 0 0 1-.688 0l-.326-.316a.46.46 0 0 1 0-.667l4.041-3.885-4.041-3.884a.46.46 0 0 1 0-.667l.326-.317a.498.498 0 0 1 .688 0l4.386 4.218.327.317c.19.184.19.483 0 .667zm-6 0l-.327.317-4.386 4.217a.496.496 0 0 1-.688 0l-.327-.316a.462.462 0 0 1 0-.667l4.042-3.885L.124 1.092a.462.462 0 0 1 0-.667L.451.108a.498.498 0 0 1 .688 0l4.386 4.218.327.317c.19.184.19.483 0 .667z"/>
</svg>
