<svg xmlns="http://www.w3.org/2000/svg" width="18" height="18">
    <path fill="#C4CAD8" fill-rule="evenodd" d="M17.483 7.82h-6.787a.516.516 0 0 1-.516-.517V.516c0-.285.231-.516.516-.516C14.719.004 17.995 3.281 18 7.304a.517.517 0 0 1-.517.516zm-5.891-6.722a.326.326 0 0 0-.264.077.33.33 0 0 0-.115.25v5.03c0 .183.148.331.332.331h5.029a.336.336 0 0 0 .251-.114.336.336 0 0 0 .077-.265 6.321 6.321 0 0 0-5.31-5.309zm3.014 9.598c0 4.028-3.276 7.304-7.303 7.304S0 14.724 0 10.696c0-4.027 3.276-7.303 7.303-7.303a.518.518 0 0 1 .517.517v5.938a.33.33 0 0 0 .331.331h5.939c.285 0 .517.232.516.517zm-1.175.632a.33.33 0 0 0-.25-.115H7.302a.513.513 0 0 1-.516-.517V4.819a.333.333 0 0 0-.331-.332.26.26 0 0 0-.048.004c-3.063.442-5.374 3.11-5.374 6.205a6.277 6.277 0 0 0 6.27 6.27h.001c3.091-.004 5.759-2.314 6.204-5.374a.33.33 0 0 0-.077-.264z" opacity=".502"/>
</svg>
