<svg xmlns="http://www.w3.org/2000/svg" width="17" height="18">
    <path fill="#576C84" fill-rule="evenodd" d="M16.657 13.666c-.063-.041-.54-.371-1.016-1.369-.876-1.833-1.06-4.415-1.06-6.259v-.023c-.008-1.899-.912-3.586-2.307-4.687a6.412 6.412 0 0 0-.675-.465 6.153 6.153 0 0 0-.501-.267c-.038-.018-.074-.043-.113-.06l-.058-.019A6.026 6.026 0 0 0 9.751.139L9.724.131 9.703.127A5.548 5.548 0 0 0 9.29.065C9.229.056 9.168.044 9.106.037a6.172 6.172 0 0 0-.611-.03L8.492.006c-.208 0-.412.011-.614.031-.061.006-.119.019-.179.026-.14.019-.281.037-.418.064L7.26.131l-.026.008a6.054 6.054 0 0 0-1.179.378l-.056.019c-.038.017-.072.04-.109.058a6.04 6.04 0 0 0-.515.275c-.086.052-.172.103-.255.159a6.12 6.12 0 0 0-.791.63v.001C3.15 2.76 2.403 4.311 2.403 6.038c0 1.844-.184 4.426-1.06 6.259-.476.998-.952 1.328-1.016 1.369a.605.605 0 0 0-.337.69c.062.288.335.487.633.487h4.623c.025 1.753 1.471 3.17 3.246 3.17s3.221-1.417 3.247-3.17h4.623c.297 0 .57-.199.632-.487a.606.606 0 0 0-.337-.69zm-8.165 3.098a1.98 1.98 0 0 1-1.986-1.921h3.971a1.98 1.98 0 0 1-1.985 1.921zm2.54-3.17H2.06c.109-.169.22-.359.33-.574.846-1.649 1.274-3.998 1.274-6.982 0-2.637 2.166-4.782 4.828-4.782 2.662 0 4.827 2.145 4.827 4.784l.001.024c.002 2.972.431 5.312 1.274 6.956.11.215.221.405.33.574h-3.892z"/>
</svg>
