<svg xmlns="http://www.w3.org/2000/svg" width="180" height="188.654" viewBox="0 0 180 188.654">
    <defs>
        <clipPath id="clip-path">
            <path id="block" fill="#ffc4c4" d="M0 0H180V188.654H0z" opacity="0.16" transform="translate(1204 473)"/>
        </clipPath>
        <style>
            .cls-11,.cls-5,.cls-8{fill:none}.cls-5,.cls-8{stroke:#404459;stroke-width:4px;stroke-linecap:round}.cls-8{stroke-linejoin:round}.cls-10{stroke:none}
        </style>
    </defs>
    <g id="illust" clip-path="url(#clip-path)" transform="translate(-1204 -473)">
        <g id="illust_05" transform="translate(1204 473.865)">
            <path id="bg" d="M42.895 84.488c-.426-6.348-3.382-12.209-6.194-17.913s-5.591-11.7-5.622-18.058c-.052-10.925 8.272-20.495 18.131-25.2s21.065-5.512 31.97-6.167c11.4-.684 23.168-1.236 33.91 2.645 6.191 2.236 11.786 5.867 17.031 9.845a137.873 137.873 0 0 1 36.158 41.093c6.352 11.066 11.232 23.436 10.888 36.191S172.38 132.8 160.93 138.43c-11.793 5.8-25.926 2.787-38.793 5.452-14.509 3.009-26.4 12.953-38.363 21.7s-25.848 16.91-40.593 15.444c-9.846-.98-18.73-6.17-26.981-11.633C8.857 164.531 1.083 158.316.1 149.56c-.64-5.712 1.828-11.291 4.677-16.278A97.422 97.422 0 0 1 26.189 107.5c7.755-6.59 17.5-11.218 16.705-23.011z" transform="translate(-.001 6.706)" style="isolation:isolate" fill="#d0d5d6" opacity="0.3"/>
            <g id="그룹_1897" transform="translate(43.817)">
                <g id="닫기" transform="translate(35.798)">
                    <circle id="타원_120" cx="23.365" cy="23.365" r="23.365" fill="#fb6565" transform="translate(12.385 2.134)"/>
                    <g id="close" transform="rotate(45 6.652 47.244)">
                        <path id="선_397" d="M0 0L0 24" class="cls-5" transform="rotate(-90 6.207 6.207)"/>
                        <path id="선_398" d="M0 0L0 24" class="cls-5" transform="translate(12.414)"/>
                    </g>
                    <g id="타원_121" fill="none" stroke="#404459" stroke-width="4px" transform="translate(9.519)">
                        <circle cx="25.962" cy="25.962" r="25.962" class="cls-10"/>
                        <circle cx="25.962" cy="25.962" r="23.962" class="cls-11"/>
                    </g>
                    <circle id="타원_122" cx="12.981" cy="12.981" r="12.981" fill="#eceeef" transform="translate(0 32.019)"/>
                </g>
                <g id="그룹_1896" transform="translate(0 47.596)">
                    <path id="패스_6528" d="M136.438 183.767L91.065 51.915h-5.73L39.961 183.767" class="cls-8" transform="translate(-39.961 -51.915)"/>
                    <path id="선_394" d="M0 0L38.942 0" class="cls-8" transform="translate(28.784 21.823)"/>
                    <path id="선_395" d="M0 0L60.669 0" class="cls-8" transform="translate(17.921 56.439)"/>
                    <path id="선_396" d="M0 0L82.839 0" class="cls-8" transform="translate(7.24 91.081)"/>
                    <path id="패스_6529" d="M99.573 79.16l-33.267 32.861 56.437 34.64-80.288 33.85" class="cls-8" transform="translate(-40.296 -55.583)"/>
                    <path id="패스_6530" d="M80.317 79.16l33.266 32.861-56.437 34.64 78.554 33.85" class="cls-8" transform="translate(-42.274 -55.583)"/>
                </g>
                <g id="그룹_1898" transform="translate(40.125 36.346)">
                    <g id="타원_118" fill="#00aae5" stroke="#404459" stroke-linecap="round" stroke-linejoin="round" stroke-width="4px">
                        <circle cx="8.654" cy="8.654" r="8.654" class="cls-10"/>
                        <circle cx="8.654" cy="8.654" r="6.654" class="cls-11"/>
                    </g>
                </g>
            </g>
        </g>
    </g>
</svg>
