<svg xmlns="http://www.w3.org/2000/svg" width="140" height="26" viewBox="0 0 140 26">
    <defs>
        <clipPath id="clip-path">
            <path id="사각형_79" fill="#ccc" d="M0 0H140V26H0z" opacity="0.56" transform="translate(0 .008)"/>
        </clipPath>
        <style>
            .cls-3{fill:#ccc}
        </style>
    </defs>
    <g id="footer_logo" clip-path="url(#clip-path)" transform="translate(0 -.008)">
        <g id="LOGO" transform="translate(0 .657)">
            <g id="그룹_232" transform="translate(27.269 4.703)">
                <path id="패스_22" d="M201.12 451.4h-5.285l-8.047-9.229v9.229h-3.962v-12.5h5.348l7.891 9.369V438.9h4.056z" class="cls-3" transform="translate(-183.825 -438.904)"/>
                <path id="패스_23" d="M248.356 451.937a4.139 4.139 0 0 1-2.042 3.714 9.486 9.486 0 0 1-5.1 1.184 9.7 9.7 0 0 1-5.009-1.076 4.177 4.177 0 0 1-2.065-3.858 3.83 3.83 0 0 1 2.231-3.445 9.844 9.844 0 0 1 4.914-1.131 9.6 9.6 0 0 1 5.137 1.21 3.809 3.809 0 0 1 1.934 3.402zm-3.683-.041a2.361 2.361 0 0 0-.932-1.9 3.909 3.909 0 0 0-2.541-.762 3.7 3.7 0 0 0-2.422.782 2.437 2.437 0 0 0-.956 1.967 2.686 2.686 0 0 0 .969 2.174 3.778 3.778 0 0 0 2.5.809 3.546 3.546 0 0 0 2.6-.845 3 3 0 0 0 .782-2.221z" class="cls-3" transform="translate(-214.928 -444.11)"/>
                <path id="패스_24" d="M283.34 449.1h-3.7v7.272h-3.263v-9.264h3.263v1.292a2.546 2.546 0 0 1 .648-.794 2.7 2.7 0 0 1 1.009-.471c.193-.047.4-.09.614-.126a3.967 3.967 0 0 1 .661-.053 4.036 4.036 0 0 1 .768.071z" class="cls-3" transform="translate(-241.039 -443.884)"/>
                <path id="패스_25" d="M307.027 444.031h-3.2v4.218a1.135 1.135 0 0 0 .521.951 2.86 2.86 0 0 0 1.562.378h.969v1.822h-3.062a3.718 3.718 0 0 1-2.35-.754 2.026 2.026 0 0 1-.735-.987 4.3 4.3 0 0 1-.168-1.277v-4.346h-2.1v-1.912h2.1V438.9h3.263v3.215h3.2z" class="cls-3" transform="translate(-254.697 -438.904)"/>
                <path id="패스_26" d="M338.166 445.289v6.111h-3.357v-5.633c0-.168-.007-.367-.022-.594a.853.853 0 0 0-.379-.612 1.855 1.855 0 0 0-.721-.352 4.374 4.374 0 0 0-.91-.08h-2.814v7.271h-3.357v-12.5h3.357v3.215h4.09a7.9 7.9 0 0 1 1.632.135 3.781 3.781 0 0 1 1.289.59 2.539 2.539 0 0 1 .934 1.031 3.41 3.41 0 0 1 .258 1.418z" class="cls-3" transform="translate(-272.089 -438.904)"/>
                <path id="패스_27" d="M372.6 453.751a2.54 2.54 0 0 1-1.009 2.014 3.88 3.88 0 0 1-2.556.836h-8.154v-1.678h6.681a2.45 2.45 0 0 0 1.2-.267.835.835 0 0 0 .485-.765q0-1.158-2.084-1.158h-3.412a3.424 3.424 0 0 1-2.108-.782 2.164 2.164 0 0 1-1.019-1.682 2.823 2.823 0 0 1 .76-2.057 3.493 3.493 0 0 1 2.591-.887h7.842v1.775h-6.98a.983.983 0 0 0-.7.287.884.884 0 0 0-.3.652.834.834 0 0 0 .391.686 1.548 1.548 0 0 0 .94.286h3.68a4.406 4.406 0 0 1 2.744.775 2.385 2.385 0 0 1 1.008 1.965z" class="cls-3" transform="translate(-293.114 -444.11)"/>
                <path id="패스_28" d="M402.316 444.031h-3.194v4.218a1.131 1.131 0 0 0 .521.951 2.853 2.853 0 0 0 1.561.378h.969v1.822h-3.063a3.718 3.718 0 0 1-2.35-.754 2.044 2.044 0 0 1-.735-.987 4.35 4.35 0 0 1-.166-1.277v-4.346h-2.1v-1.912h2.1V438.9h3.263v3.215h3.194z" class="cls-3" transform="translate(-313.604 -438.904)"/>
                <path id="패스_29" d="M431.922 456.6h-8.883a4.271 4.271 0 0 1-2.552-.754 2.268 2.268 0 0 1-1.057-1.911 2.472 2.472 0 0 1 .964-2 3.674 3.674 0 0 1 2.415-.792h5.756v-.507a.76.76 0 0 0-.1-.406 2.462 2.462 0 0 0-.346-.408 1.6 1.6 0 0 0-.691-.369 4.794 4.794 0 0 0-1-.083h-6.164v-2.05h6.3a11.068 11.068 0 0 1 2.589.224 4.405 4.405 0 0 1 1.472.67 2.947 2.947 0 0 1 1.044 1.288 5.171 5.171 0 0 1 .261 1.787zm-3.357-1.911v-1.771h-4.2a1.935 1.935 0 0 0-1.017.251.759.759 0 0 0-.418.67.7.7 0 0 0 .407.607 1.775 1.775 0 0 0 .932.242z" class="cls-3" transform="translate(-329.473 -444.11)"/>
                <path id="패스_30" d="M465.331 449.1h-3.7v7.272h-3.263v-9.264h3.263v1.292a2.551 2.551 0 0 1 .648-.794 2.691 2.691 0 0 1 1.011-.471c.192-.047.4-.09.613-.126a3.965 3.965 0 0 1 .659-.053 4.039 4.039 0 0 1 .77.071z" class="cls-3" transform="translate(-353.543 -443.884)"/>
            </g>
            <path id="빼기_1" d="M0 19.141L.308 13l4.157-3.808L4 13.525l2.7-2.739L8.407.976 9.608 0 7.7 10.884 0 19.14z" class="cls-3" transform="translate(11.641 4.632)"/>
            <path id="빼기_2" d="M12.225 11.895L0 5.354 9.863 0l11.393 4.626-1.212.981-6.136-2.618-3.4 2.4 6.072 2.989-4.358 3.516z" class="cls-3"/>
        </g>
    </g>
</svg>
