<svg xmlns="http://www.w3.org/2000/svg" width="167.368" height="30" viewBox="0 0 167.368 30">
    <defs>
        <clipPath id="clip-path">
            <path id="사각형_79" fill="#ccc" d="M0 0H167.368V30H0z" opacity="0.56"/>
        </clipPath>
        <style>
            .cls-3{fill:#ccc}
        </style>
    </defs>
    <g id="footer_logo" clip-path="url(#clip-path)">
        <g id="LOGO" transform="translate(0 .79)">
            <g id="그룹_232" transform="translate(32.599 5.622)">
                <path id="패스_22" d="M204.5 453.837h-6.319l-9.62-11.033v11.033h-4.737V438.9h6.393l9.434 11.2v-11.2h4.849z" class="cls-3" transform="translate(-183.825 -438.904)"/>
                <path id="패스_23" d="M251.136 452.839a4.949 4.949 0 0 1-2.441 4.439 11.341 11.341 0 0 1-6.1 1.415 11.6 11.6 0 0 1-5.988-1.286 4.994 4.994 0 0 1-2.468-4.612 4.579 4.579 0 0 1 2.668-4.119 11.768 11.768 0 0 1 5.875-1.352 11.478 11.478 0 0 1 6.142 1.447 4.554 4.554 0 0 1 2.312 4.068zm-4.4-.049a2.823 2.823 0 0 0-1.114-2.267 4.672 4.672 0 0 0-3.038-.911 4.423 4.423 0 0 0-2.9.935 2.913 2.913 0 0 0-1.143 2.352 3.211 3.211 0 0 0 1.158 2.6 4.516 4.516 0 0 0 2.994.967 4.24 4.24 0 0 0 3.107-1.01 3.587 3.587 0 0 0 .933-2.667z" class="cls-3" transform="translate(-211.173 -443.481)"/>
                <path id="패스_24" d="M284.7 449.523h-4.424v8.693h-3.9v-11.075h3.9v1.546a3.044 3.044 0 0 1 .775-.949 3.225 3.225 0 0 1 1.206-.563c.231-.057.475-.108.734-.151a4.743 4.743 0 0 1 .79-.064 4.823 4.823 0 0 1 .918.085z" class="cls-3" transform="translate(-234.131 -443.283)"/>
                <path id="패스_25" d="M308.7 445.034h-3.82v5.042a1.356 1.356 0 0 0 .623 1.137 3.419 3.419 0 0 0 1.868.451h1.158v2.173h-3.661a4.444 4.444 0 0 1-2.809-.9 2.422 2.422 0 0 1-.879-1.18 5.14 5.14 0 0 1-.2-1.527v-5.2h-2.508v-2.286h2.508V438.9h3.9v3.844h3.82z" class="cls-3" transform="translate(-246.14 -438.904)"/>
                <path id="패스_26" d="M340.426 446.537v7.3h-4.014V447.1c0-.2-.008-.438-.027-.711a1.02 1.02 0 0 0-.453-.732 2.218 2.218 0 0 0-.862-.421 5.23 5.23 0 0 0-1.088-.1h-3.364v8.693h-4.013V438.9h4.013v3.844h4.889a9.438 9.438 0 0 1 1.951.162 4.521 4.521 0 0 1 1.541.706 3.035 3.035 0 0 1 1.116 1.232 4.077 4.077 0 0 1 .311 1.693z" class="cls-3" transform="translate(-261.432 -438.904)"/>
                <path id="패스_27" d="M374.937 455.007a3.037 3.037 0 0 1-1.207 2.408 4.638 4.638 0 0 1-3.056 1h-9.748v-2.006h7.987a2.929 2.929 0 0 0 1.43-.32 1 1 0 0 0 .58-.914q0-1.384-2.492-1.384h-4.079a4.094 4.094 0 0 1-2.521-.935 2.587 2.587 0 0 1-1.218-2.011 3.375 3.375 0 0 1 .908-2.459 4.176 4.176 0 0 1 3.1-1.06H374v2.117h-8.344a1.175 1.175 0 0 0-.837.343 1.057 1.057 0 0 0-.355.78 1 1 0 0 0 .467.82 1.85 1.85 0 0 0 1.124.342h4.4a5.267 5.267 0 0 1 3.28.927 2.852 2.852 0 0 1 1.202 2.352z" class="cls-3" transform="translate(-279.918 -443.481)"/>
                <path id="패스_28" d="M403.988 445.034h-3.818v5.042a1.352 1.352 0 0 0 .623 1.137 3.41 3.41 0 0 0 1.866.451h1.158v2.173h-3.661a4.444 4.444 0 0 1-2.809-.9 2.444 2.444 0 0 1-.879-1.18 5.2 5.2 0 0 1-.2-1.527v-5.2h-2.51v-2.286h2.51V438.9h3.9v3.844h3.818z" class="cls-3" transform="translate(-297.934 -438.904)"/>
                <path id="패스_29" d="M434.364 458.415h-10.619a5.107 5.107 0 0 1-3.051-.9 2.711 2.711 0 0 1-1.264-2.285 2.956 2.956 0 0 1 1.152-2.387 4.392 4.392 0 0 1 2.888-.946h6.882v-.607a.908.908 0 0 0-.126-.485 2.943 2.943 0 0 0-.414-.487 1.915 1.915 0 0 0-.826-.441 5.729 5.729 0 0 0-1.195-.1h-7.369v-2.451h7.526a13.232 13.232 0 0 1 3.1.268 5.266 5.266 0 0 1 1.76.8 3.523 3.523 0 0 1 1.248 1.54 6.182 6.182 0 0 1 .312 2.137zm-4.013-2.285v-2.117h-5.027a2.313 2.313 0 0 0-1.216.3.907.907 0 0 0-.5.8.842.842 0 0 0 .487.726 2.122 2.122 0 0 0 1.115.29z" class="cls-3" transform="translate(-311.887 -443.481)"/>
                <path id="패스_30" d="M466.692 449.523h-4.424v8.693h-3.9v-11.075h3.9v1.546a3.05 3.05 0 0 1 .775-.949 3.216 3.216 0 0 1 1.208-.563c.229-.057.472-.108.733-.151a4.74 4.74 0 0 1 .787-.064 4.827 4.827 0 0 1 .921.085z" class="cls-3" transform="translate(-333.051 -443.283)"/>
            </g>
            <path id="빼기_1" d="M0 22.883l.369-7.335 4.969-4.557-.56 5.181L8.01 12.9l2.04-11.733L11.487 0 9.2 13.012 0 22.882z" class="cls-3" transform="translate(13.916 5.538)"/>
            <path id="빼기_2" d="M14.615 14.22L0 6.4 11.791 0l13.62 5.531L23.962 6.7l-7.335-3.13-4.06 2.87 7.259 3.573-5.21 4.2z" class="cls-3"/>
        </g>
    </g>
</svg>
