<svg xmlns="http://www.w3.org/2000/svg" width="24" height="24" viewBox="0 0 24 24">
    <g>
        <g>
            <path fill="#010101" d="M20.695 32.747a12 12 0 1 0-12-12 12.014 12.014 0 0 0 12 12zm-9.579-7.668h3.659a13.623 13.623 0 0 0 2.266 5.521 10.566 10.566 0 0 1-5.925-5.521zm4.719-4.332a21.289 21.289 0 0 1 .194-2.855h3.928V23.6h-3.929a21.313 21.313 0 0 1-.194-2.853zm9.721 0a21.313 21.313 0 0 1-.194 2.855h-3.929v-5.71h3.928a21.289 21.289 0 0 1 .194 2.855zM21.433 31.13v-6.05H25.1c-.675 3.141-2.052 5.489-3.667 6.05zm0-14.715v-6.05c1.614.561 2.991 2.909 3.669 6.05zm-1.477-6.05v6.05h-3.669c.678-3.141 2.055-5.489 3.669-6.05zm0 14.714v6.05c-1.614-.561-2.991-2.909-3.669-6.05zm4.392 5.521a13.622 13.622 0 0 0 2.266-5.524h3.659a10.565 10.565 0 0 1-5.925 5.524zm6.442-6.9a.72.72 0 0 0-.34-.093h-3.6a22.654 22.654 0 0 0 0-5.71h3.6a.721.721 0 0 0 .34-.093 10.366 10.366 0 0 1 0 5.9zm-.516-7.281h-3.66a13.623 13.623 0 0 0-2.266-5.523 10.566 10.566 0 0 1 5.926 5.519zm-13.233-5.527a13.621 13.621 0 0 0-2.266 5.523h-3.659a10.566 10.566 0 0 1 5.925-5.523zM10.6 17.8a.721.721 0 0 0 .339.093h3.6a22.654 22.654 0 0 0 0 5.71h-3.6a.721.721 0 0 0-.339.093 10.365 10.365 0 0 1 0-5.9z" transform="translate(.421 1.204) translate(-9.116 -9.951)"/>
        </g>
    </g>
</svg>
