<svg xmlns="http://www.w3.org/2000/svg" width="60.5" height="25" viewBox="0 0 60.5 25">
    <defs>
        <clipPath id="clip-path">
            <path id="사각형_893" fill="#fff" d="M0 0H60.5V25H0z" opacity="0.5"/>
        </clipPath>
        <style>
            .cls-3{fill:#fff}
        </style>
    </defs>
    <g id="logo_sunjin" transform="translate(-4.186 2.296)">
        <g id="마스크_그룹_55" clip-path="url(#clip-path)" transform="translate(4.186 -2.296)">
            <g id="sunjin" transform="translate(.25 -.25)">
                <path id="패스_6814" d="M320.785 312.5a4.828 4.828 0 0 0-1.6 3.093l-.03.487c0 2.02 1.573 2.7 2.962 3.3 1.021.452 2.087.932 2.062 1.879l-.035.351a1.853 1.853 0 0 1-1.82 1.342 2.986 2.986 0 0 1-2.33-.758 3.226 3.226 0 0 1-.787-1.78l-.014-.334h-.781l-.636 3.606.156.123a5.823 5.823 0 0 0 3.614 1.141c3.3 0 5.759-1.8 6.274-4.6.511-2.777-1.634-3.712-3.2-4.4-1.242-.541-1.97-.94-1.853-1.7a1.792 1.792 0 0 1 1.748-1.315 2.459 2.459 0 0 1 2.825 2.242l.05.289h.839l.538-3.045-.138-.123a5.6 5.6 0 0 0-3.718-1.313 6.261 6.261 0 0 0-4.126 1.515z" class="cls-3" transform="translate(-317.778 -303.435)"/>
                <path id="패스_6815" d="M417.29 319.969c.05-.292.152-.861.152-.861h-3.4L412 330.685h3.514l1.246-7.065a2.218 2.218 0 0 1 2.125-2.013c.863 0 1.6.334 1.176 2.753l-1.117 6.325h3.516l1.218-6.905c.4-2.26.362-4.6-2.916-4.87a5.118 5.118 0 0 0-3.472 1.059z" class="cls-3" transform="translate(-388.443 -309.367)"/>
                <path id="패스_6816" d="M516.612 311.692c.05-.292.151-.861.151-.861h-3.4l-2.041 11.576h3.513l1.246-7.064a2.219 2.219 0 0 1 2.126-2.012c.862 0 1.6.333 1.175 2.754l-1.116 6.323h3.515L523 315.5c.4-2.258.363-4.6-2.914-4.868a5.094 5.094 0 0 0-3.474 1.06z" class="cls-3" transform="translate(-462.934 -303.16)"/>
                <path id="패스_6817" d="M372.39 319.744l-1.172 6.647c-.194 1.114-.524 2.311-1.985 2.438a1.284 1.284 0 0 1-1.4-.971 4.971 4.971 0 0 1 .109-1.675l1.135-6.438h-3.517l-1.137 6.445c-.206 1.136-.489 2.692.091 3.788a3.432 3.432 0 0 0 3.2 1.543 4.793 4.793 0 0 0 2.882-.979l-.137.781h3.4l2.039-11.578z" class="cls-3" transform="translate(-352.571 -310.003)"/>
                <path id="패스_6818" d="M502.777 282.908a2.646 2.646 0 0 1-2.5 2.125 1.736 1.736 0 0 1-1.754-2.125 2.647 2.647 0 0 1 2.5-2.126 1.736 1.736 0 0 1 1.754 2.126z" class="cls-3" transform="translate(-453.313 -280.782)"/>
                <path id="패스_6819" d="M477.788 291.185a2.647 2.647 0 0 1-2.5 2.126 1.734 1.734 0 0 1-1.751-2.126 2.644 2.644 0 0 1 2.5-2.126 1.735 1.735 0 0 1 1.751 2.126z" class="cls-3" transform="translate(-434.572 -286.99)"/>
                <path id="패스_6820" d="M450.922 328.263a3.077 3.077 0 0 0 2.323-1.231 6.538 6.538 0 0 0 .618-1.974l2.323-13.148a5.539 5.539 0 0 0 1.738.257 7.22 7.22 0 0 0 1.851-.246l-2.235 12.651a4.911 4.911 0 0 1-2.474 3.683 8.4 8.4 0 0 1-4.307 1.12z" class="cls-3" transform="translate(-417.515 -304.128)"/>
                <path id="패스_6821" d="M491.51 316.8l2.374-13.644a7.131 7.131 0 0 1-1.851.245 5.517 5.517 0 0 1-1.738-.257l-2.406 13.656z" class="cls-3" transform="translate(-445.361 -297.555)"/>
            </g>
        </g>
    </g>
</svg>
