<svg xmlns="http://www.w3.org/2000/svg" width="60" height="26" viewBox="0 0 60 26">
    <defs>
        <clipPath id="0nd05hnpqa">
            <path fill="red" d="M0 0H60V26H0z" opacity="0.15" transform="translate(134.963 2.37)"/>
        </clipPath>
    </defs>
    <g clip-path="url(#0nd05hnpqa)" transform="translate(-134.963 -2.37)">
        <g>
            <path fill="#fff" d="M193.679 552.19l2.531-3.118h-2.963a4.411 4.411 0 0 0-2.955.938l-.224.275V540.15h-3.01a1.283 1.283 0 0 0-1.28 1.283v18.911h3.01a1.283 1.283 0 0 0 1.28-1.284v-5.031l2.438 2.993 2.074 2.552a1.926 1.926 0 0 0 1.533.768h4.2l-2.716-3.331zm12.013 3.432v-6.55h-4.3v7.355a3.736 3.736 0 0 0 3.921 3.917h3.3a1.286 1.286 0 0 0 1.286-1.284v-2.286h-3.065a1.152 1.152 0 0 1-1.142-1.152zm4.931-8.859v-2.852l-.266.282c-.007.008-.813.83-3.129.83h-1.534v-4.873h-3.011a1.285 1.285 0 0 0-1.285 1.281v3.592h-5.113a3.657 3.657 0 0 0-3.162 1.463l-2.514 3.1a4.626 4.626 0 0 1 2.932-1.124h13.686a4.119 4.119 0 0 0 3.054-.873 1.174 1.174 0 0 0 .342-.826z" transform="translate(152.963 5.37) translate(-185.779 -540.15)"/>
        </g>
    </g>
</svg>
