<svg xmlns="http://www.w3.org/2000/svg" width="71.349" height="26" viewBox="0 0 71.349 26">
    <defs>
        <clipPath id="clip-path">
            <path id="block" fill="red" d="M0 0H71.349V26H0z" opacity="0.2" transform="translate(318 1164.5)"/>
        </clipPath>
        <style>
            .cls-3{fill:#fff}
        </style>
    </defs>
    <g id="logo_sds" clip-path="url(#clip-path)" transform="translate(-318 -1164.5)">
        <g id="logo_sds-2" transform="translate(318.605 1165.105)">
            <path id="패스_192" d="M72.9 83.681a.771.771 0 0 0 .153-.439v-2.178h-1.208v-.009h-.61v.828h.425v.956a.446.446 0 1 1-.893.022v-2.918a.446.446 0 1 1 .893.022v.335h1.394v-.74c0-.5-.588-.849-.588-.849a2.181 2.181 0 0 0-.958-.24H70.8a1.6 1.6 0 0 0-.969.327 1.033 1.033 0 0 0-.446.806V83.2a1.034 1.034 0 0 0 .445.8 1.6 1.6 0 0 0 .969.327h.672A78.434 78.434 0 0 1 53.81 89.29c-15.162 2.566-28.047 1.139-28.779-3.188-.388-2.291 2.708-4.935 7.958-7.3a1.038 1.038 0 0 0-.434.8v.806a1.239 1.239 0 0 0 .48.991c.141.1 1.274.719 1.274.719a.813.813 0 0 1 .534.577c.01.577-.479.544-.479.544-.479-.011-.457-.544-.457-.544v-.36h-1.493v.392a1.384 1.384 0 0 0 .5 1.22 3.07 3.07 0 0 0 1.536.37 2.587 2.587 0 0 0 1.416-.436 1.187 1.187 0 0 0 .457-.816v-.806a1.313 1.313 0 0 0-.723-1.129l-1.253-.654c-.468-.185-.414-.534-.414-.534a.447.447 0 1 1 .893.022v.336h1.394v-.74c0-.5-.588-.849-.588-.849a2.182 2.182 0 0 0-.958-.24h-.704a1.66 1.66 0 0 0-.306.042 78.889 78.889 0 0 1 17.494-4.891c15.162-2.566 28.048-1.139 28.78 3.189.364 2.152-2.351 4.618-7.038 6.869m-17.77-4.118c0-.5-.588-.849-.588-.849a2.183 2.183 0 0 0-.959-.24h-.707a1.6 1.6 0 0 0-.97.327 1.033 1.033 0 0 0-.446.806v.806a1.24 1.24 0 0 0 .479.991c.142.1 1.274.719 1.274.719a.813.813 0 0 1 .534.577c.01.577-.479.544-.479.544-.479-.011-.457-.544-.457-.544v-.36h-1.493v.392a1.384 1.384 0 0 0 .5 1.22 3.069 3.069 0 0 0 1.536.37 2.585 2.585 0 0 0 1.415-.436 1.187 1.187 0 0 0 .457-.816v-.806a1.313 1.313 0 0 0-.718-1.133l-1.252-.654c-.469-.185-.414-.534-.414-.534a.446.446 0 1 1 .893.022v.336h1.395zm-14.059-.947h-2.4l-.915 5.4h1.481l.632-4.247.631 4.247H42zm3.986 5.4v-4.072l.872 4.073h1.481l.871-4.051v4.051c-.087.022 1.35 0 1.35 0v-5.4c0 .022-2.287 0-2.287 0l-.675 3.071-.676-3.071h-2.286v5.4zm22.346-5.4h-1.35V81.9l-1.5-3.288h-1.72v5.4h1.35v-3.22l1.481 3.224H67.4m-8.908-1.242v-4.16h-1.544v4.116s-.087 1.59 1.939 1.59c2.112 0 1.982-1.59 1.982-1.59v-4.116h-1.547v4.16s.011.479-.414.479-.414-.479-.414-.479" class="cls-3" transform="translate(-24.999 -72.348)"/>
            <g id="그룹_384" transform="translate(42.796 17.431)">
                <path id="패스_193" d="M155.269 109.946h2.215a1.919 1.919 0 0 1 1.937 1.115 7.669 7.669 0 0 1 .32 2.31 6.163 6.163 0 0 1-.44 2.947c-.389.629-1.12.943-2.377.943h-1.656v-7.316zm.917 6.506h.867c1.277 0 1.748-.486 1.748-2.188v-1.48c0-1.48-.451-2.026-1.408-2.026h-1.207v5.694z" class="cls-3" transform="translate(-137.151 -109.796)"/>
                <path id="패스_194" d="M145.4 115v.212a1.149 1.149 0 0 0 1.209 1.306c.728 0 1.288-.312 1.288-1.183 0-1.617-3.236-1.436-3.236-3.634a1.918 1.918 0 0 1 2.118-1.984c1.314 0 2.054.651 2 2.137h-.958c.007-.8-.238-1.327-1.108-1.327a1.01 1.01 0 0 0-1.113 1.073c0 1.607 3.233 1.377 3.233 3.694 0 1.537-1.047 2.032-2.236 2.032-2.128.021-2.128-1.628-2.107-2.326z" class="cls-3" transform="translate(-131.412 -109.671)"/>
                <path id="패스_195" d="M126.706 109.626v3.924h.965v-1.575h.817v-.8h-.817v-1.548z" class="cls-3" transform="translate(-121.945 -109.626)"/>
                <path id="패스_196" d="M119.076 121.917v-3.21h4.532v3.21zm3.6-.782v-1.643H120v1.643z" class="cls-3" transform="translate(-117.882 -114.461)"/>
                <path id="패스_197" d="M140.253 109.626v3.924h-.947v-1.575h-1.23v-.8h1.215v-1.549z" class="cls-3" transform="translate(-127.998 -109.626)"/>
                <path id="패스_198" d="M134.8 121.871c-1.389 0-2.512-.812-2.512-1.817s1.123-1.818 2.512-1.818 2.512.814 2.512 1.818-1.125 1.817-2.512 1.817zm1.562-1.817c0-.56-.7-1.015-1.562-1.015s-1.562.455-1.562 1.015.7 1.015 1.562 1.015 1.562-.456 1.562-1.015z" class="cls-3" transform="translate(-124.914 -114.211)"/>
                <path id="패스_199" d="M119.01 109.932a3.318 3.318 0 0 0 1.593 3l-.5.683a4.35 4.35 0 0 1-1.544-1.74 4.343 4.343 0 0 1-1.543 1.74l-.5-.683a3.313 3.313 0 0 0 1.6-3z" class="cls-3" transform="translate(-116.523 -109.789)"/>
                <path id="패스_200" d="M132.391 111.877a3.979 3.979 0 0 1-1.438 1.668l-.5-.683a3.232 3.232 0 0 0 1.486-2.93h.893a3.231 3.231 0 0 0 1.488 2.93l-.5.683a3.983 3.983 0 0 1-1.438-1.668z" class="cls-3" transform="translate(-123.942 -109.789)"/>
                <path id="패스_201" d="M166.618 115v.212a1.148 1.148 0 0 0 1.207 1.306c.729 0 1.289-.312 1.289-1.183 0-1.617-3.234-1.436-3.234-3.634a1.916 1.916 0 0 1 2.12-1.99 1.79 1.79 0 0 1 2 2.137h-.959c.009-.8-.238-1.327-1.109-1.327a1.01 1.01 0 0 0-1.107 1.074c0 1.607 3.234 1.377 3.234 3.694 0 1.537-1.047 2.032-2.238 2.032-2.125.021-2.125-1.628-2.1-2.326z" class="cls-3" transform="translate(-142.708 -109.671)"/>
            </g>
        </g>
    </g>
</svg>
