<svg xmlns="http://www.w3.org/2000/svg" width="100" height="22.695" viewBox="0 0 100 22.695">
    <defs>
        <clipPath id="clip-path">
            <path id="사각형_904" fill="red" d="M0 0H100V22.695H0z" opacity="0.15"/>
        </clipPath>
        <style>
            .cls-3{fill:#fff}
        </style>
    </defs>
    <g id="logo_mnsoft" transform="translate(-443 -345)">
        <g id="마스크_그룹_56" clip-path="url(#clip-path)" transform="translate(443 345)">
            <g id="그룹_2072">
                <g id="그룹_2071">
                    <path id="패스_6835" d="M306.8 267.805h-3.343v-2.793h-1.568v7.149h1.568V269.2h3.343v2.959h1.569v-7.149H306.8z" class="cls-3" transform="translate(-301.888 -265.013)"/>
                    <path id="패스_6836" d="M465.547 265.42a1.631 1.631 0 0 0-.353 1.113v5.629h1.571v-2.281h3.323v2.281h1.568v-7.149h-4.885a1.606 1.606 0 0 0-1.224.407zm1.613.992h2.929v2.077h-3.323v-1.672a.507.507 0 0 1 .06-.32c.074-.097.188-.08.334-.085z" class="cls-3" transform="translate(-426.587 -265.013)"/>
                    <path id="패스_6837" d="M403.963 265.013h-4.895v7.149h1.566v-5.75h2.944c.144 0 .264-.008.335.085a.574.574 0 0 1 .063.32v5.345h1.562v-5.629a1.578 1.578 0 0 0-.347-1.113 1.607 1.607 0 0 0-1.228-.407z" class="cls-3" transform="translate(-376.094 -265.013)"/>
                    <path id="패스_6838" d="M370.712 270.359c-.009.082.012.227-.061.317s-.195.087-.339.09h-2.942v-5.753h-1.57v7.149h4.9a1.35 1.35 0 0 0 1.577-1.524v-5.625h-1.564z" class="cls-3" transform="translate(-350.693 -265.013)"/>
                    <path id="패스_6839" d="M438.806 266.533a1.348 1.348 0 0 0-1.573-1.52h-4.9v7.149h4.9a1.348 1.348 0 0 0 1.573-1.524zm-1.562 3.826a.542.542 0 0 1-.06.317c-.075.093-.2.087-.339.09H433.9v-4.354h2.945c.143 0 .264-.008.339.085a.547.547 0 0 1 .06.32z" class="cls-3" transform="translate(-401.498 -265.013)"/>
                    <path id="패스_6840" d="M335.4 268.14l-1.905-3.128h-1.863l2.925 4.506v2.643h1.678v-2.643l2.922-4.506h-1.861z" class="cls-3" transform="translate(-324.597 -265.013)"/>
                    <path id="패스_6841" d="M499.186 265.013v7.149h1.671v-7.149z" class="cls-3" transform="translate(-452.544 -265.013)"/>
                </g>
                <path id="패스_6842" d="M409.909 312.285h-4.717a2.776 2.776 0 0 0-2.805 2.744v6.21h2.813v-5.652a.547.547 0 0 1 .547-.547h3.6a.547.547 0 0 1 .547.547v5.652h2.817v-6.209a2.776 2.776 0 0 0-2.802-2.745zm-10.687-2.6a2.846 2.846 0 0 0-4.031 1.243l-3.078 6.274-3.078-6.274a2.811 2.811 0 0 0-4.035-1.247 2.741 2.741 0 0 0-1.369 2.389v9.178h2.817v-8.4a.173.173 0 0 1 .173-.174.182.182 0 0 1 .153.1l3.378 6.835a2.16 2.16 0 0 0 1.956 1.266 2.232 2.232 0 0 0 1.957-1.266l3.381-6.838a.164.164 0 0 1 .151-.093.173.173 0 0 1 .174.174v8.4h2.816v-9.178a2.741 2.741 0 0 0-1.366-2.393zm37.315-.279h-6.459a2.775 2.775 0 0 0-2.806 2.744v6.476a2.775 2.775 0 0 0 2.806 2.745h6.459a2.776 2.776 0 0 0 2.807-2.745v-6.476a2.776 2.776 0 0 0-2.808-2.75zm-.009 8.664a.546.546 0 0 1-.536.546h-5.356a.547.547 0 0 1-.546-.544V312.7a.547.547 0 0 1 .547-.547h5.344a.547.547 0 0 1 .548.547zm-12.568-2.994l-6.557-1.922a.444.444 0 0 1 .137-.866h8.023v-2.754H417.3a3.172 3.172 0 0 0-3.173 3.173 3.1 3.1 0 0 0 2.145 2.993l6.557 1.923a.444.444 0 0 1-.137.866h-8.365v2.754h8.605a3.172 3.172 0 0 0 3.173-3.172 3.1 3.1 0 0 0-2.147-2.999zm19.768-5.542a2.775 2.775 0 0 0-2.806 2.744v8.964h2.816V317.2h7.448v-2.755h-7.448v-1.614a.547.547 0 0 1 .547-.547h12.128v8.954h2.817v-8.954h4.932v-2.754z" class="cls-3" transform="translate(-364.31 -298.808)"/>
            </g>
        </g>
    </g>
</svg>
