<svg xmlns="http://www.w3.org/2000/svg" width="100" height="16.848" viewBox="0 0 100 16.848">
    <defs>
        <clipPath id="clip-path">
            <path id="사각형_897" fill="red" d="M0 0H100V16.848H0z" opacity="0.15" transform="translate(-93 -8)"/>
        </clipPath>
        <style>
            .cls-3{fill:#fff}
        </style>
    </defs>
    <g id="logo_kb" clip-path="url(#clip-path)" transform="translate(93 8)">
        <g id="kb" transform="translate(-93 -8)">
            <path id="패스_6823" d="M348.263 336.442h-3.869v-3.181h3.869zm1.4-4.4h-6.669v5.631h6.669z" class="cls-3" transform="translate(-276.559 -329.579)"/>
            <path id="패스_6824" d="M301.913 336.182v1.759h4.125v4.6h-1.409v-3.385h-8.277v-1.216h4.156v-1.759h-5.017v-1.216h9.073v-2.432h-8.057v-1.209h9.467v3.632h1.009v1.224z" class="cls-3" transform="translate(-241.965 -329.059)"/>
            <path id="패스_6825" d="M356.514 361.35h-8.85v-4.136h1.41v2.918h7.44z" class="cls-3" transform="translate(-279.961 -347.912)"/>
            <path id="사각형_895" d="M0 0H1.4V7.393H0z" class="cls-3" transform="translate(75.043 2.19)"/>
            <path id="사각형_896" d="M0 0H11.484V1.215H0z" class="cls-3" transform="translate(77.697 8.082)"/>
            <path id="패스_6826" d="M389.012 355.661v4.558h9.188V359h-7.787v-3.342z" class="cls-3" transform="translate(-310.073 -346.781)"/>
            <path id="패스_6827" d="M453 336.7h1.366v-2.333h.781v2.333h1.366v-5.654h-1.366v2.148h-.781v-2.148H453z" class="cls-3" transform="translate(-356.672 -328.854)"/>
            <path id="패스_6828" d="M429.684 329.231v1.045h-2.5v1.191h6.388v-1.191h-2.485v-1.045z" class="cls-3" transform="translate(-337.871 -327.533)"/>
            <path id="패스_6829" d="M441.19 357.3c-1.357 0-2.456-.509-2.456-1.65s1.1-1.649 2.456-1.649 2.455.516 2.455 1.649-1.1 1.65-2.455 1.65m0-4.569c-2.164 0-3.913.961-3.913 2.92 0 1.942 1.749 2.919 3.913 2.919s3.909-.977 3.909-2.919c0-1.959-1.75-2.92-3.909-2.92" class="cls-3" transform="translate(-345.223 -344.646)"/>
            <path id="패스_6830" d="M394.562 333.656c-1.453 0-2.628-.52-2.628-1.685s1.175-1.682 2.628-1.682 2.628.528 2.628 1.682-1.178 1.685-2.628 1.685m0-4.65c-2.268 0-4.107.978-4.107 2.967s1.839 2.967 4.107 2.967 4.107-.992 4.107-2.967-1.839-2.967-4.107-2.967" class="cls-3" transform="translate(-311.124 -327.37)"/>
            <path id="패스_6831" d="M430.9 337.741c-.858 0-1.552-.362-1.552-1.18s.694-1.184 1.552-1.184 1.547.372 1.547 1.184-.694 1.18-1.547 1.18m0-3.506c-1.657 0-3 .789-3 2.394s1.341 2.4 3 2.4 3-.805 3-2.4-1.343-2.394-3-2.394" class="cls-3" transform="translate(-338.398 -331.178)"/>
            <path id="패스_6832" d="M202.963 331.385h1.788v5.015l6.018-5.012h2.531l-6.359 5.058 6.887 6.141H211.3l-6.547-6v6h-1.788z" class="cls-3" transform="translate(-174.581 -329.102)"/>
            <path id="패스_6833" d="M247.53 331.471h5.5c2.618 0 3.988.87 3.988 2.771a2.561 2.561 0 0 1-2.2 2.534v.047a2.707 2.707 0 0 1 2.652 2.729c0 1.672-1.224 3.117-4.265 3.117h-5.675zm1.784 4.716h3.632c1.349 0 2.346-.512 2.346-1.707 0-1.04-.492-1.734-2.552-1.734h-3.426zm0 5.211h3.52c2.185 0 2.764-.854 2.764-1.939 0-1.287-.888-2-2.859-2h-3.426z" class="cls-3" transform="translate(-207.037 -329.165)"/>
            <path id="패스_6834" d="M121.288 331.444l-.2-.127a3.588 3.588 0 0 0-2.9-.9 5.464 5.464 0 0 0-2.538.875v-.029a10.237 10.237 0 0 1 .074-1.039 10.194 10.194 0 0 0 .076-1.057 2.465 2.465 0 0 0-.16-.961.187.187 0 0 0-.181-.116 2.769 2.769 0 0 0-1.171.383l-.088.193a7.86 7.86 0 0 1-.173 1.564l-.046.127a19.094 19.094 0 0 0-.013 3.976c.015.113.234.286.4.347a2.554 2.554 0 0 0 1.1-.214l.127-.019a.191.191 0 0 0 .163-.221l.008-.328a3.271 3.271 0 0 1 2.38-2.333 1.647 1.647 0 0 1 1.58.51 2.159 2.159 0 0 1-.257 1.6 3.316 3.316 0 0 1-1.809 1.427 6.946 6.946 0 0 1-2.769.388l-1.018-.688a14.7 14.7 0 0 0-2.9-1.727 3.427 3.427 0 0 1-.66-.47l-.1-.082c-.56-.449-1.626-1.159-2.482-1.73l-.462-.309v-.1c.024-.027.561-.35.561-.35a5.773 5.773 0 0 0 1.176-.768c-.015.017.1-.06.1-.06l1.866-1.056a22.915 22.915 0 0 0 4.889-3.207l.052-.168.023-.15a1.046 1.046 0 0 0 .016-.627.2.2 0 0 0-.145-.143 4.079 4.079 0 0 0-2.885 1.333 2.556 2.556 0 0 1-.6.415l-.149.083c-1.078.612-3.507 2.119-4.776 2.933a42.98 42.98 0 0 1 .647-4.932l-.034-.193-.131-.245-.1-.176-.029-.007a.8.8 0 0 0-.613-.037l-.255.093-.337.123a.186.186 0 0 0-.141.119 20.6 20.6 0 0 0-1.232 5.811 29.229 29.229 0 0 0-2.884-1.595l-.016-.008-.066-.014a2.047 2.047 0 0 1-.671-.312l-.46-.3-.706-.451c.007 0-.185-.042-.185-.042a2.2 2.2 0 0 0-1.057.708.2.2 0 0 0-.032.114.628.628 0 0 0 .032.166l.032.144.033.087a10.111 10.111 0 0 0 2.026 1.373l.969.513 1.483.81c0 .007.254.2.254.2l.175.1.03.019-2.7 1.8-1.42.939a8.157 8.157 0 0 1-.817.393 1.168 1.168 0 0 0-.637.526l-.037.082.038.054.108.082.146.1.156.107.148.022a3.746 3.746 0 0 0 1.309-.434c.634-.281 2.357-1.32 3.093-1.764l.314-.189a.69.69 0 0 0 .4-.2 3.941 3.941 0 0 1 .666-.4l.222-.123v.085a30.169 30.169 0 0 0 .409 5.153v.023l.024.05a5.6 5.6 0 0 1 .381 1.184l.281.94c.005.011.08.089.08.089a1.867 1.867 0 0 0 .974.257l.081-.01.052-.115a2.222 2.222 0 0 0 .037-.43c0-.172-.013-.362-.028-.593l-.022-.34c-.1-1.573-.207-3.845-.207-5.354v-.12l1.436.9c1.989 1.29 4.994 3.241 6.81 3.756a.268.268 0 0 0 .264-.06l.28-.179.051-.021a.5.5 0 0 0 .187-.417 6.806 6.806 0 0 0 4.808-2.1 2.993 2.993 0 0 0 .641-1.823 1.545 1.545 0 0 0-.374-1.117" class="cls-3" transform="translate(-98.517 -322.984)"/>
        </g>
    </g>
</svg>
