<svg xmlns="http://www.w3.org/2000/svg" width="121.038" height="120" viewBox="0 0 121.038 120">
    <defs>
        <style>
            .cls-2{fill:#abffff}.cls-3,.cls-5{fill:none}.cls-3,.cls-4,.cls-5{stroke:#fff;stroke-miterlimit:10;stroke-width:2px}.cls-4{fill:#0f0}.cls-5{stroke-linecap:round}
        </style>
    </defs>
    <g id="icon03" transform="translate(-406.213 -216.081)">
        <g id="그룹_486">
            <path id="inbox4" d="M419.457 287.954v-14.671l11.819-6.7 11.839 6.7v14.672l-11.839 6.7z" class="cls-2" transform="translate(-.824 -4.655)"/>
            <path id="inbox3" d="M460.457 326.954v-14.671l11.819-6.7 11.839 6.7v14.672l-11.839 6.7z" class="cls-2" transform="translate(-4.693 -8.334)"/>
            <path id="inbox2" d="M503.458 287.954v-14.671l11.819-6.7 11.839 6.7v14.672l-11.839 6.7z" class="cls-2" transform="translate(-8.75 -4.655)"/>
            <path id="inbox" d="M460.457 248.954v-14.671l11.819-6.7 11.839 6.7v14.672l-11.839 6.7z" class="cls-2" transform="translate(-4.693 -.975)"/>
            <g id="그룹_502">
                <path id="패스_6423" d="M451.75 252.87v-24.453l19.7-11.174 19.732 11.174v24.453l-19.732 11.173z" class="cls-3" transform="translate(-3.871)"/>
                <g id="그룹_471" transform="translate(447.845 228.417)">
                    <path id="패스_6426" d="M491.176 229.581l-19.732 11.173-19.732-11.173" class="cls-3" transform="translate(-451.713 -229.581)"/>
                    <path id="선_273" d="M0 0L0 24.453" class="cls-4" transform="translate(19.732 11.321)"/>
                </g>
            </g>
            <g id="그룹_473" transform="translate(447.845 287.885)">
                <path id="패스_6427" d="M451.75 330.87v-24.453l19.7-11.173 19.732 11.173v24.453l-19.732 11.174z" class="cls-3" transform="translate(-451.716 -295.244)"/>
                <g id="그룹_472" transform="translate(0 11.173)">
                    <path id="패스_6428" d="M491.176 307.581l-19.732 11.174-19.732-11.174" class="cls-3" transform="translate(-451.713 -307.581)"/>
                    <path id="선_274" d="M0 0L0 24.453" class="cls-4" transform="translate(19.732 11.321)"/>
                </g>
            </g>
            <g id="그룹_475" transform="translate(486.787 252.564)">
                <path id="패스_6429" d="M494.75 291.87v-24.453l19.7-11.173 19.732 11.173v24.453l-19.732 11.173z" class="cls-3" transform="translate(-494.716 -256.244)"/>
                <g id="그룹_474" transform="translate(0 11.173)">
                    <path id="패스_6430" d="M534.176 268.581l-19.732 11.173-19.732-11.173" class="cls-3" transform="translate(-494.712 -268.581)"/>
                    <path id="선_275" d="M0 0L0 24.453" class="cls-4" transform="translate(19.732 11.321)"/>
                </g>
            </g>
            <path id="패스_6431" d="M410.75 291.87v-24.453l19.7-11.173 19.732 11.173v24.453l-19.732 11.173z" class="cls-3" transform="translate(-.003 -3.679)"/>
            <g id="그룹_476" transform="translate(410.713 263.738)">
                <path id="패스_6432" d="M450.176 268.581l-19.732 11.173-19.732-11.173" class="cls-3" transform="translate(-410.712 -268.581)"/>
                <path id="선_276" d="M0 0L0 24.453" class="cls-4" transform="translate(19.732 11.321)"/>
            </g>
            <path id="선_277" d="M0 0L18.552 12.219" class="cls-5" transform="translate(439.049 281.324)"/>
            <path id="선_278" d="M0 0L18.552 12.219" class="cls-5" transform="translate(478.897 246.909)"/>
            <path id="선_279" d="M17.043 0L0 11.132" class="cls-5" transform="translate(440.118 246.909)"/>
            <path id="선_280" d="M17.043 0L0 11.132" class="cls-5" transform="translate(479.062 283.135)"/>
        </g>
    </g>
</svg>
