<svg xmlns="http://www.w3.org/2000/svg" width="145.928" height="26" viewBox="0 0 145.928 26">
    <defs>
        <linearGradient id="linear-gradient" x1=".433" x2="1.286" y1=".763" y2=".763" gradientUnits="objectBoundingBox">
            <stop offset="0" stop-color="#009de1"/>
            <stop offset="1" stop-color="#003983"/>
        </linearGradient>
        <clipPath id="clip-path">
            <path id="사각형_735" fill="red" d="M0 0H145.928V26H0z" opacity="0.2"/>
        </clipPath>
        <style>
            .cls-3{fill:#003983}
        </style>
    </defs>
    <g id="northstar_logo_new" clip-path="url(#clip-path)">
        <g id="그룹_2004" transform="translate(0 .406)">
            <g id="그룹_2003" transform="translate(28.553 4.925)">
                <path id="패스_6707" d="M201.935 451.984H196.4l-8.426-9.663v9.663h-4.149V438.9h5.6l8.263 9.81v-9.81h4.247z" class="cls-3" transform="translate(-183.825 -438.904)"/>
                <path id="패스_6708" d="M249.026 452.154a4.334 4.334 0 0 1-2.138 3.888 9.934 9.934 0 0 1-5.343 1.24 10.157 10.157 0 0 1-5.245-1.127 4.374 4.374 0 0 1-2.162-4.04 4.01 4.01 0 0 1 2.336-3.607 10.308 10.308 0 0 1 5.145-1.184 10.053 10.053 0 0 1 5.381 1.268 3.988 3.988 0 0 1 2.026 3.562zm-3.856-.043a2.472 2.472 0 0 0-.976-1.985 4.093 4.093 0 0 0-2.661-.8 3.874 3.874 0 0 0-2.536.819 2.552 2.552 0 0 0-1 2.06 2.813 2.813 0 0 0 1.014 2.277 3.956 3.956 0 0 0 2.622.847 3.714 3.714 0 0 0 2.721-.885 3.142 3.142 0 0 0 .816-2.333z" class="cls-3" transform="translate(-214.023 -443.958)"/>
                <path id="패스_6709" d="M283.668 449.2h-3.874v7.614h-3.417v-9.7h3.417v1.354a2.666 2.666 0 0 1 .679-.832 2.826 2.826 0 0 1 1.056-.493c.2-.05.416-.094.643-.132a4.153 4.153 0 0 1 .692-.056 4.226 4.226 0 0 1 .8.074z" class="cls-3" transform="translate(-239.375 -443.739)"/>
                <path id="패스_6710" d="M307.43 444.273h-3.346v4.416a1.188 1.188 0 0 0 .546 1 3 3 0 0 0 1.636.4h1.014v1.9h-3.206a3.892 3.892 0 0 1-2.46-.789 2.121 2.121 0 0 1-.77-1.033 4.5 4.5 0 0 1-.176-1.337v-4.551h-2.2v-2h2.2V438.9h3.416v3.367h3.346z" class="cls-3" transform="translate(-252.635 -438.904)"/>
                <path id="패스_6711" d="M338.71 445.59v6.394h-3.515v-5.9c0-.175-.007-.384-.024-.622a.893.893 0 0 0-.4-.641 1.943 1.943 0 0 0-.755-.369 4.583 4.583 0 0 0-.953-.084h-2.943v7.614h-3.52V438.9h3.515v3.367h4.285a8.268 8.268 0 0 1 1.709.141 3.961 3.961 0 0 1 1.349.618 2.659 2.659 0 0 1 .978 1.079 3.571 3.571 0 0 1 .274 1.485z" class="cls-3" transform="translate(-269.521 -438.904)"/>
                <path id="패스_6712" d="M373.16 454.053a2.66 2.66 0 0 1-1.057 2.109 4.062 4.062 0 0 1-2.676.876h-8.538v-1.757h7a2.565 2.565 0 0 0 1.253-.28.875.875 0 0 0 .508-.8q0-1.213-2.182-1.213h-3.573a3.585 3.585 0 0 1-2.208-.819 2.266 2.266 0 0 1-1.067-1.761 2.956 2.956 0 0 1 .8-2.154 3.658 3.658 0 0 1 2.713-.929h8.212v1.855h-7.308a1.029 1.029 0 0 0-.733.3.925.925 0 0 0-.311.683.873.873 0 0 0 .409.718 1.621 1.621 0 0 0 .985.3h3.854a4.614 4.614 0 0 1 2.873.812 2.5 2.5 0 0 1 1.046 2.06z" class="cls-3" transform="translate(-289.934 -443.958)"/>
                <path id="패스_6713" d="M402.719 444.273h-3.344v4.416a1.184 1.184 0 0 0 .546 1 2.988 2.988 0 0 0 1.634.4h1.014v1.9h-3.206a3.892 3.892 0 0 1-2.46-.789 2.141 2.141 0 0 1-.77-1.033 4.558 4.558 0 0 1-.174-1.337v-4.551h-2.2v-2h2.2V438.9h3.416v3.367h3.344z" class="cls-3" transform="translate(-309.828 -438.904)"/>
                <path id="패스_6714" d="M432.511 457.038h-9.3a4.472 4.472 0 0 1-2.672-.789 2.375 2.375 0 0 1-1.107-2 2.589 2.589 0 0 1 1.01-2.091 3.846 3.846 0 0 1 2.529-.829H429v-.529a.8.8 0 0 0-.11-.425 2.577 2.577 0 0 0-.362-.427 1.677 1.677 0 0 0-.723-.387 5.022 5.022 0 0 0-1.046-.087H420.3v-2.147h6.592a11.591 11.591 0 0 1 2.711.234 4.611 4.611 0 0 1 1.541.7 3.085 3.085 0 0 1 1.093 1.349 5.413 5.413 0 0 1 .273 1.871zm-3.515-2v-1.854h-4.4a2.026 2.026 0 0 0-1.065.263.8.8 0 0 0-.437.7.737.737 0 0 0 .426.636 1.858 1.858 0 0 0 .976.254z" class="cls-3" transform="translate(-325.235 -443.958)"/>
                <path id="패스_6715" d="M465.659 449.2h-3.874v7.614h-3.417v-9.7h3.417v1.354a2.671 2.671 0 0 1 .678-.832 2.818 2.818 0 0 1 1.058-.493c.2-.05.414-.094.642-.132a4.151 4.151 0 0 1 .69-.056 4.228 4.228 0 0 1 .806.074z" class="cls-3" transform="translate(-348.605 -443.739)"/>
            </g>
            <path id="빼기_4" d="M0 20.043l.323-6.425 4.352-3.993-.491 4.538 2.831-2.868L8.8 1.022 10.061 0l-2 11.4L0 20.042z" class="cls-3" transform="translate(12.189 4.851)"/>
            <path id="빼기_5" fill="url(#linear-gradient)" d="M12.8 12.455L0 5.606 10.328 0l11.93 4.844-1.27 1.028-6.425-2.742-3.556 2.514 6.358 3.129-4.565 3.682z"/>
        </g>
    </g>
</svg>
