<svg xmlns="http://www.w3.org/2000/svg" id="northstar_logo" width="180" height="30.774" viewBox="0 0 180 30.774">
    <defs>
        <linearGradient id="linear-gradient" x1=".433" x2="1.286" y1=".763" y2=".763" gradientUnits="objectBoundingBox">
            <stop offset="0" stop-color="#00aae5"/>
            <stop offset="1" stop-color="#004894"/>
        </linearGradient>
        <style>
            .cls-1{fill:#004894}
        </style>
    </defs>
    <path id="패스_439" d="M107.347 31.053h-6.989l-10.641-12.2v12.2H84.48V14.54h7.069l10.435 12.386V14.54h5.363z" class="cls-1" transform="translate(-49.292 -8.594)"/>
    <path id="패스_440" d="M147.666 28.071a5.484 5.484 0 0 1-2.69 4.911 12.561 12.561 0 0 1-6.743 1.563 12.851 12.851 0 0 1-6.623-1.42 5.537 5.537 0 0 1-2.73-5.106 5.118 5.118 0 0 1 2.948-4.579 13 13 0 0 1 6.485-1.448 12.69 12.69 0 0 1 6.794 1.6 5.037 5.037 0 0 1 2.559 4.479zm-4.871-.057a3.131 3.131 0 0 0-1.254-2.507 5.18 5.18 0 0 0-3.36-1.007 4.888 4.888 0 0 0-3.205 1.036 3.222 3.222 0 0 0-1.265 2.6A3.56 3.56 0 0 0 134.993 31a5.008 5.008 0 0 0 3.314 1.065 4.672 4.672 0 0 0 3.434-1.116 3.967 3.967 0 0 0 1.053-2.931z" class="cls-1" transform="translate(-68.852 -11.868)"/>
    <path id="패스_441" d="M175.314 24.488h-4.888V34.1h-4.316V21.855h4.316v1.717a3.309 3.309 0 0 1 .853-1.047 3.549 3.549 0 0 1 1.339-.624c.252-.063.521-.12.807-.166a4.934 4.934 0 0 1 .876-.074 5.152 5.152 0 0 1 1.013.1z" class="cls-1" transform="translate(-85.165 -11.721)"/>
    <path id="패스_442" d="M196.91 21.317h-4.21v5.575a1.494 1.494 0 0 0 .687 1.259 3.743 3.743 0 0 0 2.066.5h1.247v2.4h-4a4.928 4.928 0 0 1-3.108-1 2.673 2.673 0 0 1-.973-1.305 5.667 5.667 0 0 1-.223-1.689V21.34H185.6v-2.53h2.77v-4.27h4.33v4.27h4.224z" class="cls-1" transform="translate(-93.771 -8.594)"/>
    <path id="패스_443" d="M225.7 22.983v8.071h-4.442v-7.442c0-.223 0-.487-.029-.784a1.145 1.145 0 0 0-.5-.813 2.524 2.524 0 0 0-.95-.464 5.97 5.97 0 0 0-1.208-.1h-3.721v9.6h-4.44V14.54h4.436v4.27h5.409a10.3 10.3 0 0 1 2.158.183 4.928 4.928 0 0 1 1.717.778 3.337 3.337 0 0 1 1.219 1.328 4.425 4.425 0 0 1 .351 1.884z" class="cls-1" transform="translate(-104.756 -8.594)"/>
    <path id="패스_444" d="M256.241 30.447a3.36 3.36 0 0 1-1.334 2.662 5.151 5.151 0 0 1-3.377 1.1h-10.79V32h8.832a3.263 3.263 0 0 0 1.586-.355 1.11 1.11 0 0 0 .641-1.013q0-1.528-2.759-1.528h-4.51a4.51 4.51 0 0 1-2.788-1.036 2.858 2.858 0 0 1-1.345-2.221 3.749 3.749 0 0 1 1.007-2.73 4.642 4.642 0 0 1 3.434-1.173H255.2v2.347h-9.233a1.3 1.3 0 0 0-.927.378 1.145 1.145 0 0 0-.389.859 1.1 1.1 0 0 0 .515.91 2.061 2.061 0 0 0 1.242.378h4.865a5.827 5.827 0 0 1 3.629 1.025 3.148 3.148 0 0 1 1.339 2.606z" class="cls-1" transform="translate(-117.98 -11.839)"/>
    <path id="패스_445" d="M280.956 21.317h-4.241v5.575a1.494 1.494 0 0 0 .687 1.259 3.743 3.743 0 0 0 2.066.5h1.276v2.4h-4.03a4.928 4.928 0 0 1-3.108-1 2.747 2.747 0 0 1-.973-1.305 5.872 5.872 0 0 1-.218-1.689V21.34h-2.775v-2.53h2.776v-4.27h4.3v4.27h4.224z" class="cls-1" transform="translate(-130.786 -8.594)"/>
    <path id="패스_446" d="M308.8 34.238h-11.747a5.667 5.667 0 0 1-3.377-1 3 3 0 0 1-1.4-2.524 3.274 3.274 0 0 1 1.276-2.644 4.854 4.854 0 0 1 3.194-1.042h7.613v-.675a.95.95 0 0 0-.143-.532 2.828 2.828 0 0 0-.458-.538 2.1 2.1 0 0 0-.91-.492 6.474 6.474 0 0 0-1.322-.109h-8.151v-2.69h8.325a14.733 14.733 0 0 1 3.434.3 5.879 5.879 0 0 1 1.94.847 3.967 3.967 0 0 1 1.379 1.717 6.867 6.867 0 0 1 .343 2.364zm-4.436-2.513v-2.352H298.8a2.564 2.564 0 0 0-1.345.332 1 1 0 0 0-.572.887.933.933 0 0 0 .538.8 2.364 2.364 0 0 0 1.231.321z" class="cls-1" transform="translate(-141.151 -11.864)"/>
    <path id="패스_447" d="M335.83 24.479h-4.894v9.61h-4.316V21.846h4.316v1.717a3.435 3.435 0 0 1 .859-1.047 3.48 3.48 0 0 1 1.339-.635c.258-.063.527-.12.813-.166a4.918 4.918 0 0 1 .87-.074 5.26 5.26 0 0 1 1.019.1z" class="cls-1" transform="translate(-155.835 -11.712)"/>
    <path id="패스_448" d="M38 11.988l.006.006-2.255 12.97-3.577 3.623.618-5.735-5.492 5.043-.406 8.116L37.067 25.09 39.6 10.7z" class="cls-1" transform="translate(-11.498 -5.237)"/>
    <path id="패스_449" fill="url(#linear-gradient)" d="M21.928 11.076L13.9 7.126l4.493-3.177L26.5 7.412l1.6-1.294L13.039 0 0 7.08l16.164 8.649z"/>
</svg>
