<svg xmlns="http://www.w3.org/2000/svg" width="69.63" height="22.222" viewBox="0 0 69.63 22.222">
    <defs>
        <style>
            .cls-1,.cls-2{fill:#fff}.cls-2{fill-rule:evenodd}
        </style>
    </defs>
    <g id="logo-hyundai">
        <path id="사각형_99" d="M0 0H69.63V1.556H0z" class="cls-1" transform="translate(0 12.726)"/>
        <g id="그룹_365" transform="translate(7.878 17.308)">
            <path id="패스_118" d="M206.864 164.726h1.014v3.983h2.17c.1 0 .154-.106.154-.19v-3.793h1.014v4.017c0 .574-.395.8-1.09.8h-3.26v-4.814z" class="cls-2" transform="translate(-162.645 -164.726)"/>
            <path id="패스_119" d="M100.6 165.1h3.377a.53.53 0 0 1 .519.539v3.735a.53.53 0 0 1-.519.539H100.6a.53.53 0 0 1-.519-.539v-3.735a.531.531 0 0 1 .519-.539m.656 1.051h2.065a.132.132 0 0 1 .124.138v2.436a.132.132 0 0 1-.124.138h-2.065a.132.132 0 0 1-.124-.138v-2.436a.132.132 0 0 1 .124-.138" class="cls-2" transform="translate(-84.272 -164.998)"/>
            <path id="패스_120" d="M63.519 165.1H66.9a.531.531 0 0 1 .519.539v3.735a.53.53 0 0 1-.519.539h-3.381a.531.531 0 0 1-.519-.539v-3.735a.531.531 0 0 1 .519-.539m.655 1.051h2.066a.132.132 0 0 1 .124.138v2.436a.132.132 0 0 1-.124.138h-2.065a.132.132 0 0 1-.123-.138v-2.436a.132.132 0 0 1 .123-.138" class="cls-2" transform="translate(-57.011 -164.998)"/>
            <path id="패스_121" d="M187.607 165.1h3.376a.531.531 0 0 1 .519.539v3.735a.53.53 0 0 1-.519.539h-3.376a.53.53 0 0 1-.519-.539v-3.735a.531.531 0 0 1 .519-.539m.655 1.051h2.065a.132.132 0 0 1 .124.138v2.436a.132.132 0 0 1-.124.138h-2.065a.132.132 0 0 1-.124-.138v-2.436a.132.132 0 0 1 .124-.138" class="cls-2" transform="translate(-148.084 -164.998)"/>
            <path id="패스_122" d="M42.092 164.726l1.248 3.429 1.248-3.429H45.9v4.813h-1.013v-2.995l-1.052 2.995h-.992l-1.052-2.995v2.995h-1.013v-4.813z" class="cls-2" transform="translate(-40.778 -164.726)"/>
            <path id="패스_123" d="M167.423 164.726h3.53c.531 0 .82.41.82 1v1.408c-.005.568-.284.966-.795.979l.972 1.43h-1.126l-.972-1.43h-1.415v1.43h-1.014v-4.813m1.014.831v1.722h2.2a.128.128 0 0 0 .12-.139V165.7c0-.089-.039-.146-.195-.146h-2.129" class="cls-2" transform="translate(-133.662 -164.726)"/>
            <path id="패스_124" d="M119.784 164.726h3.53c.531 0 .82.41.82 1v1.408c-.005.568-.284.966-.795.979l.972 1.43h-1.126l-.972-1.43H120.8v1.43h-1.013v-4.813m1.013.831v1.722h2.2a.128.128 0 0 0 .12-.139V165.7c0-.089-.039-.146-.194-.146H120.8" class="cls-2" transform="translate(-98.723 -164.726)"/>
            <path id="패스_125" d="M149.107 164.726h3.344v1.013h-3.344v2.97h2.17c.1 0 .154-.106.154-.19v-.919h-1.2v-.932h2.215v2.074c0 .575-.395.8-1.09.8h-2.649c-.461 0-.611-.435-.611-.856v-2.944a.92.92 0 0 1 1.013-1.013z" class="cls-2" transform="translate(-119.485 -164.726)"/>
            <path id="패스_126" d="M83.4 164.726h2.707v1.013h-1.692v3.8H83.4v-3.8h-1.692v-1.013z" class="cls-2" transform="translate(-70.797 -164.726)"/>
            <path id="패스_127" d="M226.544 164.726h3.531c.531 0 .82.41.82 1v1.408c-.005.577-.293.98-.819.98h-2.517v1.43h-1.014v-4.813m1.014.831v1.722h2.2a.127.127 0 0 0 .12-.139V165.7c0-.089-.039-.146-.195-.146h-2.129" class="cls-2" transform="translate(-177.021 -164.726)"/>
        </g>
        <g id="그룹_366" transform="translate(.18)">
            <path id="패스_128" d="M49.523 100.506h2.672l2.822 4.345 2.822-4.345h2.671l-4.4 6.787v3.558h-2.183v-3.563l-4.4-6.783z" class="cls-2" transform="translate(-39.468 -100.506)"/>
            <path id="패스_129" d="M93.25 100.506h2.178v8.561h4.663c.217 0 .331-.228.331-.409v-8.151h2.178v8.635c0 1.234-.849 1.711-2.343 1.711H93.25v-10.347z" class="cls-2" transform="translate(-71.607 -100.506)"/>
            <path id="패스_130" d="M135.649 110.852h2.178v-8.561h4.663c.217 0 .331.228.331.409v8.152H145v-8.635c0-1.234-.849-1.711-2.344-1.711h-7.006v10.345z" class="cls-2" transform="translate(-102.681 -100.507)"/>
            <path id="패스_131" d="M177.511 100.506h7.589c1.141 0 1.762.881 1.762 2.14v6.1c-.011 1.24-.63 2.105-1.761 2.105h-7.588v-10.345m2.178 1.785v6.776h4.735a.274.274 0 0 0 .258-.3V102.6c0-.192-.084-.314-.418-.314h-4.576" class="cls-2" transform="translate(-133.363 -100.506)"/>
            <path id="사각형_100" d="M0 0H2.178V10.345H0z" class="cls-1" transform="translate(66.98)"/>
            <path id="패스_132" d="M219.248 102.448a1.754 1.754 0 0 1 1.847-1.942h7.469v10.346h-2.178V107.4h-4.961v3.45h-2.178v-8.4m2.178-.157v3.326h4.961v-3.326h-4.961" class="cls-2" transform="translate(-163.993 -100.506)"/>
            <path id="패스_133" d="M12.216 100.506h2.178v4.144h4.961v-4.144h2.178v10.345h-2.178v-4.417h-4.961v4.417h-2.178v-10.345z" class="cls-2" transform="translate(-12.216 -100.506)"/>
        </g>
    </g>
</svg>
