<svg xmlns="http://www.w3.org/2000/svg" id="logo_kia" width="64.107" height="25.926" viewBox="0 0 64.107 25.926">
    <defs>
        <style>
            .cls-1{fill:#fff}
        </style>
    </defs>
    <path id="패스_404" d="M40.03 15.909c0 .118.036.186.107.186a.289.289 0 0 0 .155-.06L60.273 3.061a1.928 1.928 0 0 1 1.151-.35h4.391a1.064 1.064 0 0 1 1.126 1.126v8.384a2.106 2.106 0 0 1-1.126 2.14l-5.326 3.2a.355.355 0 0 1-.179.066c-.065 0-.124-.05-.124-.232V7.609c0-.107-.036-.188-.109-.188a.3.3 0 0 0-.154.057l-14.606 9.489a1.92 1.92 0 0 1-1.121.345h-9.683a1.064 1.064 0 0 1-1.126-1.126V4.1c0-.088-.039-.17-.107-.17a.311.311 0 0 0-.157.058l-9.634 5.791c-.1.058-.123.105-.123.152s.017.08.085.148l6.881 6.881c.091.092.155.162.155.233s-.1.119-.218.119h-6.228a1.505 1.505 0 0 1-1.127-.338L18.742 12.8a.174.174 0 0 0-.121-.066.273.273 0 0 0-.129.045l-6.98 4.194a1.962 1.962 0 0 1-1.127.337H3.961a1.064 1.064 0 0 1-1.126-1.126V7.955A2.1 2.1 0 0 1 3.961 5.82L9.32 2.6a.276.276 0 0 1 .145-.047c.081 0 .126.085.126.271v11c0 .116.032.17.107.17a.337.337 0 0 0 .159-.067L27.965 3.049a1.96 1.96 0 0 1 1.195-.338h9.74a1.064 1.064 0 0 1 1.13 1.127z" class="cls-1" transform="translate(-2.835 -2.553)"/>
    <path id="패스_405" d="M3.448 42.165h.51l1.671 3.881L7.3 42.165h.5v4.667h-.434v-3.838l-1.652 3.839h-.178l-1.652-3.839v3.838h-.436z" class="cls-1" transform="translate(-3.14 -22.257)"/>
    <path id="패스_406" d="M15.024 47.79c.663 0 1.087-.51 1.087-1.369v-.1c0-.853-.424-1.376-1.087-1.376s-1.087.522-1.087 1.376v.1c0 .859.424 1.369 1.087 1.369m-1.517-1.474a1.529 1.529 0 1 1 3.033 0v.1a1.528 1.528 0 1 1-3.033 0z" class="cls-1" transform="translate(-8.144 -23.467)"/>
    <path id="패스_407" d="M20.312 44.78l1.087 2.9 1.1-2.9h.424l-1.283 3.353h-.492l-1.284-3.353z" class="cls-1" transform="translate(-11.306 -23.558)"/>
    <path id="패스_408" d="M28.719 46.163c-.018-.866-.442-1.222-.983-1.222s-1 .473-1.038 1.222zm-2.45.117a1.517 1.517 0 0 1 1.467-1.68c.835 0 1.4.552 1.4 1.719v.178h-2.443c.025.725.424 1.3 1.087 1.3a1.665 1.665 0 0 0 1.186-.51v.454a1.792 1.792 0 0 1-1.186.4 1.518 1.518 0 0 1-1.511-1.713z" class="cls-1" transform="translate(-14.492 -23.467)"/>
    <path id="패스_409" d="M33.235 44.689h.365l.043.688a1.317 1.317 0 0 1 1.148-.779.89.89 0 0 1 .946.8 1.363 1.363 0 0 1 1.172-.8c.627 0 .983.405.983 1.173v2.272h-.418v-2.212c0-.583-.166-.891-.627-.891a1.365 1.365 0 0 0-1.081 1.013v2.088h-.418v-2.21c0-.583-.16-.891-.621-.891a1.365 1.365 0 0 0-1.081 1.013v2.088h-.418z" class="cls-1" transform="translate(-17.957 -23.467)"/>
    <path id="패스_410" d="M46.166 46.163c-.019-.866-.442-1.222-.983-1.222s-1 .473-1.038 1.222zm-2.451.117a1.517 1.517 0 0 1 1.468-1.68c.835 0 1.4.552 1.4 1.719v.178h-2.444c.024.725.424 1.3 1.087 1.3a1.664 1.664 0 0 0 1.186-.51v.454a1.791 1.791 0 0 1-1.186.4 1.518 1.518 0 0 1-1.511-1.713z" class="cls-1" transform="translate(-23.17 -23.467)"/>
    <path id="패스_411" d="M50.681 44.689h.368l.043.774a1.473 1.473 0 0 1 1.259-.866c.694 0 1.056.436 1.056 1.234v2.211h-.417v-2.149c0-.614-.178-.952-.7-.952A1.472 1.472 0 0 0 51.1 46.1v1.947h-.418z" class="cls-1" transform="translate(-26.635 -23.467)"/>
    <path id="패스_412" d="M56.865 43.771h.743v-1.02h.418v1.02h.743v.35h-.743v3h-.418v-3h-.743z" class="cls-1" transform="translate(-29.711 -22.549)"/>
    <path id="패스_413" d="M64.428 43.771h.743v-1.02h.418v1.02h.743v.35h-.743v3h-.418v-3h-.743z" class="cls-1" transform="translate(-33.474 -22.549)"/>
    <path id="패스_414" d="M69.169 42.092h.418V44.2a1.465 1.465 0 0 1 1.246-.847c.694 0 1.056.436 1.056 1.234V46.8h-.418v-2.153c0-.614-.178-.952-.7-.952a1.466 1.466 0 0 0-1.185 1.13V46.8h-.418z" class="cls-1" transform="translate(-35.832 -22.221)"/>
    <path id="패스_415" d="M76.787 47.79A1.491 1.491 0 0 0 78 47v-.74l-.639.123c-.46.085-.927.148-1.124.405a.641.641 0 0 0 .547 1m-.921-1.161c.184-.276.553-.406 1.234-.534l.9-.172c0-.651-.282-.983-.909-.983a1.573 1.573 0 0 0-1.136.5v-.424a1.687 1.687 0 0 1 1.136-.418 1.158 1.158 0 0 1 1.32 1.228v2.217h-.307l-.1-.577a1.625 1.625 0 0 1-1.3.669.9.9 0 0 1-1-.951.939.939 0 0 1 .16-.553" class="cls-1" transform="translate(-39.083 -23.467)"/>
    <path id="패스_416" d="M81.835 43.771h.743v-1.02H83v1.02h.743v.35H83v3h-.418v-3h-.743z" class="cls-1" transform="translate(-42.132 -22.549)"/>
    <path id="패스_417" d="M90.253 46.917h.418v-3.353h-.418zm0-3.986h.418v-.6h-.418z" class="cls-1" transform="translate(-46.32 -22.342)"/>
    <path id="패스_418" d="M92.71 44.689h.368l.043.774a1.473 1.473 0 0 1 1.259-.866c.694 0 1.056.436 1.056 1.234v2.211h-.418v-2.149c0-.614-.178-.952-.7-.952a1.472 1.472 0 0 0-1.19 1.159v1.947h-.418z" class="cls-1" transform="translate(-47.542 -23.467)"/>
    <path id="패스_419" d="M99.391 47.274a1.3 1.3 0 0 0 1.044.516c.485 0 .817-.221.817-.583 0-.246-.08-.43-.516-.614l-.51-.215c-.534-.227-.792-.5-.792-.915 0-.448.393-.866 1.1-.866a1.633 1.633 0 0 1 1.026.381v.479a1.476 1.476 0 0 0-1.026-.516c-.473 0-.669.252-.669.522 0 .24.184.375.565.534l.492.209c.546.233.761.534.761.983 0 .571-.51.946-1.247.946a1.409 1.409 0 0 1-1.044-.381z" class="cls-1" transform="translate(-50.865 -23.467)"/>
    <path id="패스_420" d="M106.675 47.79c.633 0 1.062-.571 1.062-1.431s-.43-1.419-1.062-1.419a1.258 1.258 0 0 0-1.081.94v.97a1.258 1.258 0 0 0 1.081.94m-1.5-3.1h.368l.037.6a1.353 1.353 0 0 1 1.13-.694c.853 0 1.455.7 1.455 1.763s-.6 1.775-1.455 1.775a1.367 1.367 0 0 1-1.118-.669v1.928h-.418z" class="cls-1" transform="translate(-53.743 -23.467)"/>
    <path id="패스_421" d="M112.4 46.917h.418v-3.353h-.418zm0-3.986h.418v-.6h-.418z" class="cls-1" transform="translate(-57.335 -22.342)"/>
    <path id="패스_422" d="M114.855 44.689h.368l.037.6a1.093 1.093 0 0 1 1.338-.639v.369a1.094 1.094 0 0 0-.368-.055 1.075 1.075 0 0 0-.958.829v2.254h-.418z" class="cls-1" transform="translate(-58.557 -23.467)"/>
    <path id="패스_423" d="M121.1 46.163c-.019-.866-.442-1.222-.983-1.222s-1 .473-1.038 1.222zm-2.451.117a1.517 1.517 0 0 1 1.468-1.683c.835 0 1.4.552 1.4 1.719v.178h-2.444c.025.725.424 1.3 1.087 1.3a1.662 1.662 0 0 0 1.185-.51v.454a1.79 1.79 0 0 1-1.185.4 1.518 1.518 0 0 1-1.511-1.713z" class="cls-1" transform="translate(-60.446 -23.467)"/>
    <path id="패스_424" d="M125.243 47.274a1.3 1.3 0 0 0 1.044.516c.485 0 .817-.221.817-.583 0-.246-.08-.43-.516-.614l-.51-.215c-.534-.227-.792-.5-.792-.915 0-.448.393-.866 1.1-.866a1.63 1.63 0 0 1 1.025.381v.479a1.474 1.474 0 0 0-1.025-.516c-.473 0-.669.252-.669.522 0 .24.184.375.565.534l.492.209c.546.233.761.534.761.983 0 .571-.51.946-1.247.946a1.409 1.409 0 0 1-1.044-.381z" class="cls-1" transform="translate(-63.725 -23.467)"/>
</svg>
