<svg xmlns="http://www.w3.org/2000/svg" width="82.099" height="25.926" viewBox="0 0 82.099 25.926">
    <defs>
        <clipPath id="clip-path">
            <path id="사각형_154" fill="red" d="M0 0H82.099V25.926H0z" opacity="0.25"/>
        </clipPath>
        <style>
            .cls-4{fill:#fff}
        </style>
    </defs>
    <g id="samsung" clip-path="url(#clip-path)">
        <g id="logo-samsung" transform="translate(.54 .54)">
            <path id="빼기_3" fill="#fff" stroke="rgba(0,0,0,0)" stroke-miterlimit="10" d="M14.581 19.119c-2.211 0-4.3-.094-6.206-.278C3.441 18.365.4 16.873.037 14.751c-.189-1.1.371-2.345 1.621-3.6a22.043 22.043 0 0 1 6.205-3.985l-.006.011a1.286 1.286 0 0 0-.168.807v.451a1.507 1.507 0 0 0 .25.86 2.047 2.047 0 0 0 .522.461l.023.012c.5.271.925.494 1.183.627.019.011.456.271.4.674a.447.447 0 0 1-.45.409h-.036a.424.424 0 0 1-.4-.434v-.492H7.563v.711a1.248 1.248 0 0 0 .354.82 2.259 2.259 0 0 0 1.677.544h.016c.2 0 1.972-.039 2.06-1.4v-.58a1.516 1.516 0 0 0-.7-1.344 5.449 5.449 0 0 0-.668-.352h-.006a5 5 0 0 1-.939-.539.547.547 0 0 1-.126-.624.39.39 0 0 1 .4-.223s.423.027.423.373v.49h1.517v-.722a1.009 1.009 0 0 0-.257-.7 2.042 2.042 0 0 0-1.526-.536h-.152c-.077 0-.134 0-.2.006l.683-.294A96.245 96.245 0 0 1 43.3 0c2.087 0 4.059.091 5.861.27a18.338 18.338 0 0 1 6.029 1.446 3.894 3.894 0 0 1 2.44 2.572c.2 1.047-.28 2.2-1.422 3.415a20.63 20.63 0 0 1-5.584 3.863l-.631.317a2.649 2.649 0 0 0 .177-.24v-.008a1.264 1.264 0 0 0 .161-.6V9.246h-1.948v.849h.417v.912a.41.41 0 0 1-.38.455.442.442 0 0 1-.333-.121.456.456 0 0 1-.115-.3V7.882c0-.321.409-.342.413-.342a.385.385 0 0 1 .4.39v.478H50.3a2.062 2.062 0 0 0-.135-1.164c-.341-.761-1.528-.8-1.762-.8h-.043a2.044 2.044 0 0 0-1.617.573 1.529 1.529 0 0 0-.333 1.107v3.052c.041 1.319 1.43 1.421 1.855 1.421h.251a74.6 74.6 0 0 1-16.512 4.873 97.7 97.7 0 0 1-17.423 1.649zm12.847-8.562v.711a1.249 1.249 0 0 0 .354.82 2.26 2.26 0 0 0 1.678.544h.015c.2 0 1.972-.039 2.061-1.4v-.58a1.515 1.515 0 0 0-.7-1.344h-.006a5.3 5.3 0 0 0-.66-.348h-.006a5 5 0 0 1-.939-.539.549.549 0 0 1-.127-.624.393.393 0 0 1 .4-.223s.424.027.424.373v.49h1.515v-.722a1.006 1.006 0 0 0-.259-.7 2.041 2.041 0 0 0-1.525-.536H29.5c-.419 0-1.431.069-1.773.711a1.286 1.286 0 0 0-.169.807v.451a1.512 1.512 0 0 0 .25.86 2.031 2.031 0 0 0 .522.461l.023.012c.5.271.924.494 1.183.627.019.011.456.271.4.674a.448.448 0 0 1-.448.409h-.028a.423.423 0 0 1-.405-.434v-.492zm5.9-3.908v4.319a1.458 1.458 0 0 0 .36 1.032 2.3 2.3 0 0 0 1.775.6h.005c.082 0 2-.018 2-1.559V6.649h-1.61v4.342a.551.551 0 0 1-.123.363.391.391 0 0 1-.3.113h-.005a.527.527 0 0 1-.251-.065.424.424 0 0 1-.2-.4l-.007-4.353zm7.61 2.262H41l1.6 3.522h1.79V6.672h-1.52l.11 3.5h-.066L41.37 6.675h-1.846v5.759h1.5l-.09-3.521zM21.961 6.672h-2.53l-.131 5.761h1.5l.018-4.34h.119l.793 4.338h1.579l.783-4.337h.1l.039 4.34h1.507l-.164-5.761h-2.501l-.506 3.151h-.12zm-6.606 1.289h.134l.59 4.467h1.615l-1-5.761h-2.545l-1 5.761h1.612l.59-4.466z"/>
            <g id="그룹_451" transform="translate(52.458 16.218)">
                <path id="패스_435" d="M131.783 107.349v4.3h1.036v-1.6h.919v-.879h-.9v-1.818z" class="cls-4" transform="translate(-126.565 -107.173)"/>
                <path id="패스_436" d="M124.543 115.964h4.966v3.519h-4.966zm3.952.859h-2.937v1.8h2.937z" class="cls-4" transform="translate(-123.236 -111.136)"/>
                <path id="패스_437" d="M144.955 107.349v4.3h-1.036v-1.974h-1.349v-.88h1.33v-1.447z" class="cls-4" transform="translate(-131.526 -107.173)"/>
                <path id="패스_438" d="M139.831 119.426c-1.544 0-2.794-.941-2.794-2.1s1.25-2.1 2.794-2.1 2.792.94 2.792 2.1-1.25 2.1-2.792 2.1m1.736-2.1c0-.648-.777-1.173-1.736-1.173s-1.738.525-1.738 1.173.778 1.174 1.738 1.174 1.736-.525 1.736-1.174" class="cls-4" transform="translate(-128.982 -110.795)"/>
                <path id="패스_439" d="M124.848 107.638a3.635 3.635 0 0 0 1.747 3.29l-.542.749a4.767 4.767 0 0 1-1.694-1.908 4.759 4.759 0 0 1-1.693 1.908l-.542-.749a3.635 3.635 0 0 0 1.747-3.29z" class="cls-4" transform="translate(-122.123 -107.307)"/>
                <path id="패스_440" d="M137.46 109.769a4.387 4.387 0 0 1-1.578 1.831l-.542-.749c1.771-.888 1.632-3.214 1.632-3.214h.977s-.138 2.326 1.632 3.214l-.542.749a4.387 4.387 0 0 1-1.578-1.831" class="cls-4" transform="translate(-128.201 -107.307)"/>
                <path id="사각형_146" d="M0 0H3.998V0.872H0z" class="cls-4" transform="translate(21.556 .366)"/>
                <path id="사각형_147" d="M0 0H1.016V8.466H0z" class="cls-4" transform="translate(26.299)"/>
                <path id="사각형_148" d="M0 0H1.496V0.872H0z" class="cls-4" transform="translate(26.836 3.078)"/>
                <path id="사각형_149" d="M0 0H1.017V5.631H0z" class="cls-4" transform="translate(19.594 .027)"/>
                <path id="사각형_150" d="M0 0H1.984V0.872H0z" class="cls-4" transform="translate(18.276 1.941)"/>
                <path id="사각형_151" d="M0 0H4.135V0.872H0z" class="cls-4" transform="translate(14.605 .362)"/>
                <path id="사각형_152" d="M0 0H1.016V3.558H0z" class="cls-4" transform="translate(15.514 4.778)"/>
                <path id="패스_441" d="M151.508 108.3s0 .034-.006.1a2.783 2.783 0 0 0 1.82 3.129l-.529.723s-1.515-.813-1.877-1.837c-.361 1.024-1.876 1.837-1.876 1.837l-.529-.723a2.781 2.781 0 0 0 1.82-3.129c0-.063-.006-.1-.006-.1z" class="cls-4" transform="translate(-134.258 -107.613)"/>
                <path id="패스_442" d="M164.247 109.057v.64c.05 1.878.114 3.241 1.751 4.693l-.67.736a5.779 5.779 0 0 1-1.584-2.429 5.794 5.794 0 0 1-1.585 2.429l-.67-.736c1.636-1.451 1.7-2.815 1.75-4.693v-.64z" class="cls-4" transform="translate(-140.227 -107.959)"/>
                <path id="사각형_153" d="M0 0H4.585V0.871H0z" class="cls-4" transform="translate(16.053 7.465)"/>
            </g>
        </g>
    </g>
</svg>
