<svg xmlns="http://www.w3.org/2000/svg" xmlns:xlink="http://www.w3.org/1999/xlink" width="40" height="40" viewBox="0 0 40 40">
    <defs>
        <path id="3n57eswnpa" d="M18.85 0l2.653 2.889H26.1c1.595 0 2.9 1.3 2.9 2.889V23.11C29 24.7 27.695 26 26.1 26H2.9C1.305 26 0 24.7 0 23.111V5.778c0-1.59 1.305-2.89 2.9-2.89h4.597L10.15 0h8.7zm1.57 11.074l-3.383 3.37h2.538c0 2.79-2.275 5.056-5.075 5.056-.854 0-1.666-.21-2.368-.59l-1.235 1.23c1.04.658 2.275 1.045 3.603 1.045 3.739 0 6.767-3.016 6.767-6.74h2.537l-3.383-3.37zm-5.92-3.37c-3.739 0-6.767 3.016-6.767 6.74H5.196l3.383 3.37 3.383-3.37H9.425c0-2.789 2.275-5.055 5.075-5.055.854 0 1.666.21 2.368.59l1.235-1.23c-1.04-.658-2.275-1.045-3.603-1.045z"/>
    </defs>
    <g fill="none" fill-rule="evenodd">
        <g transform="translate(5.444 6)">
            <use fill="#FFF" fill-rule="nonzero" xlink:href="#3n57eswnpa"/>
        </g>
        <path d="M0 0H40V40H0z"/>
    </g>
</svg>
