<svg id="outline-photo_camera-24px" xmlns="http://www.w3.org/2000/svg" width="16" height="14" viewBox="0 0 374 374" >
  <g id="Bounding_Boxes">
    <path id="패스_3111" data-name="패스 3111" d="M0,0H374V374H0Z" fill="none" stroke="#b8b8b8"/>
  </g>
  <g id="Outline" transform="translate(31.167 31.167)">
    <g id="그룹_279" data-name="그룹 279">
      <path id="XMLID_34_" d="M190.87,33.167l28.518,31.167H282.5v187H33.167v-187H96.279L124.8,33.167H190.87M204.583,2h-93.5L82.566,33.167h-49.4A31.258,31.258,0,0,0,2,64.333v187A31.258,31.258,0,0,0,33.167,282.5H282.5a31.258,31.258,0,0,0,31.167-31.167v-187A31.258,31.258,0,0,0,282.5,33.167H233.1L204.583,2Z" transform="translate(-2 -2)"/>
      <path id="XMLID_31_" d="M84.917,38.167a46.75,46.75,0,1,1-46.75,46.75,46.887,46.887,0,0,1,46.75-46.75M84.917,7a77.917,77.917,0,1,0,77.917,77.917A77.945,77.945,0,0,0,84.917,7Z" transform="translate(70.917 70.917)"/>
    </g>
  </g>
</svg>