<svg xmlns="http://www.w3.org/2000/svg" width="13" height="18" fill="#b8b8b8" viewBox="0 0 275.333 373.667">
  <path id="패스_675" data-name="패스 675" d="M142.667,238a58.754,58.754,0,0,0,58.8-59l.2-118a59,59,0,1,0-118,0V179A58.921,58.921,0,0,0,142.667,238Zm-23.6-178.967a23.6,23.6,0,1,1,47.2,0l-.2,121.933a23.5,23.5,0,1,1-47,0V59.033ZM246.9,179c0,59-49.953,100.3-104.233,100.3S38.433,238,38.433,179H5c0,67.063,53.493,122.523,118,132.16v64.507h39.333V311.16c64.507-9.44,118-64.9,118-132.16Z" transform="translate(-5 -2)"/>
</svg>
