<svg xmlns="http://www.w3.org/2000/svg" xmlns:xlink="http://www.w3.org/1999/xlink" width="40" height="40" viewBox="0 0 40 40">
    <defs>
        <path id="19wu63ycja" d="M15.714 16.628l5.78 5.78c-.465.179-.968.276-1.494.276-2.371 0-4.286-1.975-4.286-4.42v-1.636zM20 5c2.371 0 4.286 1.975 4.286 4.421l-.015 8.842c0 .846-.227 1.636-.622 2.307l-7.935-7.936V9.421c0-2.374 1.804-4.304 4.078-4.416zm-9.546 5.54L30.96 31.046l-1.414 1.414-5.215-5.214c-.909.452-1.887.767-2.902.92V33H18.57v-4.834C13.886 27.444 10 23.288 10 18.263h2.429c0 4.421 3.628 7.516 7.571 7.516.844 0 1.674-.142 2.456-.408L9.04 11.954l1.414-1.414zM30 18.263c0 2.407-.886 4.612-2.322 6.336l-1.7-1.7c.987-1.243 1.593-2.828 1.593-4.636z"/>
    </defs>
    <g fill="none" fill-rule="evenodd">
        <path d="M0 0H40V40H0z"/>
        <use fill="#FFF" fill-rule="nonzero" xlink:href="#19wu63ycja"/>
    </g>
</svg>
