<svg xmlns="http://www.w3.org/2000/svg" xmlns:xlink="http://www.w3.org/1999/xlink" width="30" height="30" viewBox="0 0 30 30">
    <defs>
        <path id="mwxe4nku9a" d="M17.4 8.5c1.656 0 2.988-1.36 2.988-3.036 0-1.675-1.332-3.035-2.988-3.035s-3 1.36-3 3.035c0 1.676 1.344 3.036 3 3.036zm-9-1.214c1.992 0 3.588-1.627 3.588-3.643S10.392 0 8.4 0 4.8 1.627 4.8 3.643s1.608 3.643 3.6 3.643zm9 3.643c-2.196 0-6.6 1.117-6.6 3.339V17H24v-2.732c0-2.222-4.404-3.34-6.6-3.34zm-9-1.215c-2.796 0-8.4 1.421-8.4 4.25V17h8.4v-2.732c0-1.032.396-2.842 2.844-4.214-1.044-.218-2.052-.34-2.844-.34z"/>
    </defs>
    <g fill="none" fill-rule="evenodd">
        <g transform="translate(3 6)">
            <mask id="2bwddncbpb" fill="#fff">
                <use xlink:href="#mwxe4nku9a"/>
            </mask>
            <g mask="url(#2bwddncbpb)">
                <path fill="#FFF" d="M0 0H28.8V29.143H0z" transform="translate(-2.4 -6.071)"/>
            </g>
        </g>
        <path d="M0 0H30V30H0z"/>
    </g>
</svg>
