<svg xmlns="http://www.w3.org/2000/svg" width="61" height="60" viewBox="0 0 61 60">
    <defs>
        <filter id="jmckwdocka" width="110%" height="166.7%" x="-5%" y="-33.3%" filterUnits="objectBoundingBox">
            <feOffset dy="5" in="SourceAlpha" result="shadowOffsetOuter1"/>
            <feGaussianBlur in="shadowOffsetOuter1" result="shadowBlurOuter1" stdDeviation="2.5"/>
            <feColorMatrix in="shadowBlurOuter1" result="shadowMatrixOuter1" values="0 0 0 0 0 0 0 0 0 0 0 0 0 0 0 0 0 0 0.25 0"/>
            <feMerge>
                <feMergeNode in="shadowMatrixOuter1"/>
                <feMergeNode in="SourceGraphic"/>
            </feMerge>
        </filter>
    </defs>
    <g fill="none" fill-rule="evenodd" filter="url(#jmckwdocka)" transform="translate(-303)">
        <g>
            <path d="M0.111 0H30.111V30H0.111z" transform="translate(318 15)"/>
            <path fill="#FFF" fill-rule="nonzero" d="M22.761 15.975c.039-.313.065-.637.065-.975 0-.338-.026-.662-.078-.975l2.173-1.65c.193-.15.245-.425.129-.637l-2.057-3.463c-.129-.225-.399-.3-.63-.225l-2.559 1c-.54-.4-1.106-.725-1.736-.975l-.385-2.65c-.039-.25-.258-.425-.515-.425h-4.114c-.257 0-.463.175-.502.425l-.385 2.65c-.63.25-1.209.588-1.736.975l-2.559-1c-.231-.088-.501 0-.63.225l-2.057 3.463c-.128.225-.077.487.129.637l2.173 1.65c-.052.313-.09.65-.09.975 0 .325.025.662.077.975L5.3 17.625c-.193.15-.244.425-.129.637l2.057 3.463c.13.225.4.3.63.225l2.56-1c.54.4 1.105.725 1.735.975l.386 2.65c.051.25.257.425.514.425h4.114c.257 0 .476-.175.502-.425l.385-2.65c.63-.25 1.21-.588 1.736-.975l2.559 1c.231.088.501 0 .63-.225l2.057-3.463c.129-.224.077-.487-.129-.637l-2.147-1.65zM15.111 19c-2.2 0-4-1.8-4-4s1.8-4 4-4 4 1.8 4 4-1.8 4-4 4z" transform="translate(318 15)"/>
        </g>
    </g>
</svg>
